<svg xmlns="http://www.w3.org/2000/svg" viewBox="0 0 50 50"><path d="M20 44.9V50l-1.2-1c-.2-.2-4.7-3.8-9.3-9.1C3.2 32.7 0 26.2 0 20.6V20C0 9 9 0 20 0s20 9 20 20v.6c0 .5 0 .9-.1 1.4L36 18.4c-.8-8.1-7.7-14.5-16-14.5-8.9 0-16.1 7.2-16.1 16.1v.6C3.9 30 16 41.4 20 44.9zm12-2.8h5.8v-5.9H32v5.9zM20 11.7c4.6 0 8.3 3.7 8.3 8.3s-3.7 8.3-8.3 8.3-8.3-3.7-8.3-8.3 3.7-8.3 8.3-8.3zm0 3.9c-2.4 0-4.4 2-4.4 4.4 0 2.4 2 4.4 4.4 4.4 2.4 0 4.4-2 4.4-4.4 0-2.4-2-4.4-4.4-4.4zm27.4 23.8l-1.1-1v6.3c0 2.9-2.4 5.3-5.3 5.3H28.7c-2.9 0-5.3-2.4-5.3-5.3v-6.3l-1.1 1-2.6-2.9 15.2-13.9L50 36.5l-2.6 2.9zm-5-4.5L34.8 28l-7.6 6.9v9.8c0 .8.6 1.4 1.4 1.4H41c.8 0 1.4-.6 1.4-1.4v-9.8z" fill="#36871d"/></svg>