<svg xmlns="http://www.w3.org/2000/svg" width="35" height="35"><path d="M34.003 7.1c.498 0 .897-.4.897-.9V.9c0-.5-.399-.9-.897-.9h-5.385c-.498 0-.897.4-.897.9v1.9h-6.78V.9c0-.5-.3-.9-.799-.9h-5.384c-.499 0-.798.4-.798.9v1.9H7.08V.9c0-.5-.4-.9-.798-.9H.897C.4 0 0 .4 0 .9v5.4c0 .5.399.9.897.9h1.895V14H.897C.4 14 0 14.3 0 14.8v5.4c0 .5.399.8.897.8h1.895v6.9H.897c-.498 0-.897.4-.897.9v5.4c0 .4.399.8.897.8h5.385c.499 0 .897-.4.897-.9v-1.9h6.781v1.9c0 .5.3.9.798.9h5.384c.499 0 .798-.4.798-.9v-1.9h6.88v1.9c0 .5.4.9.898.9h5.385c.498 0 .897-.4.897-.9v-5.4c0-.5-.399-.9-.897-.9h-1.895V21h1.895c.498 0 .897-.3.897-.8v-5.4c0-.5-.399-.8-.897-.8h-1.895V7.1h1.795zM15.655 1.7h3.59v3.7h-3.59zM1.695 5.4V1.7h3.69v3.7zm0 13.9v-3.6h3.69v3.6zm3.69 14h-3.69v-3.7h3.69zm13.86 0h-3.59v-3.7h3.59zm8.576-4.6v1.8h-6.88v-1.8c0-.5-.3-.9-.799-.9h-5.384c-.499 0-.798.4-.798.9v1.8H7.08v-1.8c0-.5-.4-.9-.898-.9H4.487V21h1.795c.499 0 .897-.3.897-.8v-5.4c0-.5-.398-.8-.897-.8H4.487V7.1h1.795c.499 0 .897-.4.897-.9V4.5h6.781v1.8c0 .5.3.9.798.9h5.384c.499 0 .798-.4.798-.9V4.5h6.88v1.8c0 .5.4.9.898.9h1.795V14h-1.795c-.499 0-.897.3-.897.8v5.4c0 .5.398.8.897.8h1.795v6.9h-1.795c-.499 0-.897.4-.897.8zm5.384.9v3.7h-3.69v-3.7zm0-13.9v3.6h-3.69v-3.6zm-3.69-10.3V1.7h3.69v3.7z" fill="#2c1f77"/></svg>