<svg xmlns="http://www.w3.org/2000/svg" height="40" width="40"><path d="M38.75 40h-1.875a1.25 1.25 0 010-2.5h1.875a1.25 1.25 0 010 2.5zM3.125 40H1.25a1.25 1.25 0 010-2.5h1.875a1.25 1.25 0 010 2.5zM32.5 40h-25a1.25 1.25 0 010-2.5h25a1.25 1.25 0 010 2.5zM20 34.653c-.92 0-1.84-.35-2.541-1.051l-10.53-10.53A4.315 4.315 0 015.656 20c0-1.15.445-2.232 1.252-3.05a4.281 4.281 0 013.058-1.272h.015c1.17 0 2.309.47 3.129 1.29l2.515 2.514V4.375A4.38 4.38 0 0120 0a4.38 4.38 0 014.375 4.375v15.107l2.554-2.553A4.315 4.315 0 0130 15.656c1.15 0 2.232.445 3.05 1.252a4.282 4.282 0 011.272 3.058 4.451 4.451 0 01-1.29 3.144l-10.49 10.492A3.587 3.587 0 0120 34.652zM9.981 18.178h-.006a1.796 1.796 0 00-1.288.528A1.832 1.832 0 008.157 20c0 .492.191.955.54 1.304l10.53 10.53c.426.426 1.12.426 1.546 0l10.492-10.492c.356-.356.56-.854.557-1.367a1.798 1.798 0 00-.528-1.288 1.832 1.832 0 00-1.294-.53c-.492 0-.955.191-1.304.54l-4.687 4.687a1.25 1.25 0 01-2.134-.884V4.375A1.877 1.877 0 0020 2.5a1.877 1.877 0 00-1.875 1.875V22.5a1.25 1.25 0 01-2.134.884l-4.649-4.649a1.934 1.934 0 00-1.36-.557z" fill="#36871d"/></svg>