<svg version="1.1" id="Layer_1" xmlns="http://www.w3.org/2000/svg" x="0" y="0" viewBox="0 0 41 50" xml:space="preserve"><style>.st0{fill-rule:evenodd;clip-rule:evenodd;fill:#2c1f77}</style><path class="st0" d="M38.1 3.9h-2.9v-1c0-1.6-1.3-2.9-2.9-2.9-1.6 0-2.9 1.3-2.9 2.9v1h-5.9v-1c0-1.6-1.3-2.9-2.9-2.9-1.6 0-2.9 1.3-2.9 2.9v1h-5.9v-1c0-1.6-1.3-2.9-2.9-2.9-1.7 0-3 1.3-3 2.9v1H3c-1.6 0-3 1.3-3 2.9V47c0 1.7 1.3 3 3 3h35.1c1.6 0 2.9-1.3 2.9-2.9V6.8c0-1.6-1.3-2.9-2.9-2.9zm-6.9-1c0-.5.4-1 1-1 .5 0 1 .4 1 1v3.9c0 .5-.4 1-1 1-.5 0-1-.4-1-1V2.9zm-11.7 0c0-.5.4-1 1-1 .5 0 1 .4 1 1v3.9c0 .5-.4 1-1 1-.5 0-1-.4-1-1V2.9zm-11.7 0c0-.5.4-1 1-1s1 .4 1 1v3.9c0 .5-.4 1-1 1s-1-.4-1-1V2.9zM3 5.9h2.9v1c0 1.6 1.3 2.9 2.9 2.9s2.9-1.3 2.9-2.9v-1h5.9v1c0 1.6 1.3 2.9 2.9 2.9 1.6 0 2.9-1.3 2.9-2.9v-1h5.9v1c0 1.6 1.3 2.9 2.9 2.9 1.6 0 2.9-1.3 2.9-2.9v-1H38c.5 0 1 .4 1 1v5.9H2v-6c0-.5.4-.9 1-.9zM38.1 48H3c-.5 0-1-.4-1-1V14.6h37V47c0 .6-.4 1-.9 1z"/><path class="st0" d="M23.8 26.7l-2.1-4.2c-.1-.3-.3-.5-.6-.6-.6-.3-1.4 0-1.8.6l-2.1 4.2-4.7.7c-.3 0-.5.2-.8.4-.5.5-.5 1.4 0 1.9l3.4 3.3-.8 4.7c0 .3 0 .6.1.8.3.6 1.1.9 1.8.5l4.2-2.2 4.1 2.2c.3.2.6.2.9.2.7-.1 1.2-.8 1.1-1.5l-.8-4.7 3.4-3.2c.2-.2.4-.5.4-.8.1-.7-.4-1.4-1.1-1.5l-4.6-.8z"/></svg>