<svg version="1.1" id="Capa_1" xmlns="http://www.w3.org/2000/svg" x="0" y="0" viewBox="0 0 40.4 50" xml:space="preserve"><style>.st0{fill:#fff}</style><path class="st0" d="M39 0H4.6c-.8 0-1.5.7-1.5 1.5v6.4H1.5C.7 7.9 0 8.6 0 9.4s.7 1.5 1.5 1.5h1.7v4.9H1.5c-.8 0-1.5.7-1.5 1.5s.7 1.5 1.5 1.5h1.7v4.9H1.5C.7 23.5 0 24.2 0 25s.7 1.5 1.5 1.5h1.7v4.9H1.5C.7 31.3 0 32 0 32.8s.7 1.5 1.5 1.5h1.7v4.9H1.5c-.8 0-1.5.7-1.5 1.5s.7 1.5 1.5 1.5h1.7v6.4c0 .8.7 1.5 1.5 1.5H39c.8 0 1.5-.7 1.5-1.5V1.5C40.4.7 39.8 0 39 0zm-1.5 47.1H6.1v-5h1.7c.8 0 1.5-.7 1.5-1.5s-.7-1.5-1.5-1.5H6.1v-4.9h1.7c.8 0 1.5-.7 1.5-1.5s-.7-1.5-1.5-1.5H6.1v-4.9h1.7c.8 0 1.5-.7 1.5-1.5s-.7-1.5-1.5-1.5H6.1v-4.9h1.7c.8 0 1.5-.7 1.5-1.5s-.7-1.5-1.5-1.5H6.1v-4.9h1.7c.8 0 1.5-.7 1.5-1.5s-.8-1.1-1.6-1.1H6.1v-5h31.4v44.2z"/><path class="st0" d="M12.5 35.2c0 .8.7 1.5 1.5 1.5s1.5-.7 1.5-1.5c0-3.9 2.4-7.9 6.3-7.9s6.3 4 6.3 7.9c0 .8.7 1.5 1.5 1.5s1.5-.7 1.5-1.5c0-3.7-1.7-7.6-4.8-9.5 1.5-1.3 2.5-3.2 2.5-5.3 0-3.8-3.1-6.9-6.9-6.9S15 16.6 15 20.4c0 2.1 1 4 2.5 5.3-3.3 1.9-5 5.7-5 9.5zm5.3-14.9c0-2.2 1.8-4 4-4s4 1.8 4 4-1.8 4-4 4-4-1.8-4-4z"/></svg>