<svg xmlns="http://www.w3.org/2000/svg" width="50" height="50" fill="none"><path d="M48.535 25.003H5.463c-.81 0-1.465.658-1.465 1.468v5.48a19.521 19.521 0 007.127 15.068h-5.37c-1.147 0-2.329-.537-3.242-1.474a1.463 1.463 0 00-2.072-.024 1.47 1.47 0 00-.024 2.076c1.461 1.498 3.407 2.358 5.339 2.358h35.22c1.963 0 3.93-.88 5.395-2.416a1.47 1.47 0 00-.047-2.075 1.463 1.463 0 00-2.071.047c-.915.958-2.11 1.508-3.276 1.508h-5.234a19.548 19.548 0 006.129-8.917c4.481-.24 8.128-3.948 8.128-8.5v-3.13c0-.811-.656-1.469-1.465-1.469zM30.453 46.921H16.415a16.568 16.568 0 01-9.487-14.97v-4.012H39.94v4.012c0 6.408-3.713 12.25-9.487 14.97zM47.07 29.602c0 2.664-1.908 4.897-4.448 5.447.311-1.934.248-2.842.248-7.11h4.2zm-24.855-19.6c-.655.984.066 2.282 1.218 2.282.473 0 .938-.23 1.22-.654a5.695 5.695 0 000-6.325 2.763 2.763 0 010-3.069 1.47 1.47 0 00-.406-2.035 1.463 1.463 0 00-2.032.407 5.694 5.694 0 000 6.325c.62.932.62 2.137 0 3.069zm9.376 8.61c-.655.984.066 2.282 1.218 2.282.473 0 .938-.23 1.22-.654a5.694 5.694 0 000-6.325 2.763 2.763 0 010-3.068 1.47 1.47 0 00-.406-2.035 1.463 1.463 0 00-2.032.407 5.694 5.694 0 000 6.325c.62.932.62 2.136 0 3.068zm-18.752 0c-.655.984.066 2.282 1.217 2.282.474 0 .938-.23 1.22-.654a5.694 5.694 0 000-6.325 2.763 2.763 0 010-3.068 1.47 1.47 0 00-.406-2.035 1.463 1.463 0 00-2.031.407 5.694 5.694 0 000 6.325c.62.932.62 2.136 0 3.068z" fill="#36871d"/></svg>