<svg xmlns="http://www.w3.org/2000/svg" height="50" viewBox="0 0 2.344 2.344" width="50"><g fill="#36871d"><path d="M.888.863A.417.417 0 01.6.748C.516.668.496.566.475.458.45.338.426.215.308.102A.049.049 0 01.337.018L.35.017c.243-.025.545-.055.782.173.075.072.12.183.121.296a.378.378 0 01-.106.274.363.363 0 01-.259.103zM.442.106C.526.218.549.335.57.439c.02.096.036.179.098.238.104.1.294.13.41.015a.282.282 0 00.078-.205.322.322 0 00-.092-.227C.884.087.654.087.442.106zM1.76.684a.275.275 0 01-.215-.09.328.328 0 01.027-.456c.194-.175.431-.143.621-.118l.01.001a.049.049 0 01.027.085.456.456 0 00-.135.267c-.019.08-.038.164-.108.227a.345.345 0 01-.228.084zm.206-.586a.466.466 0 00-.328.112.23.23 0 00-.02.32.179.179 0 00.127.056.25.25 0 00.177-.06c.047-.041.06-.1.078-.176a.63.63 0 01.098-.244 1.248 1.248 0 00-.132-.008zm-.36.076z"/><path d="M1.331 1.178a.049.049 0 01-.048-.04C1.219.79.889.505.885.502A.049.049 0 11.95.428c.014.012.36.31.43.692a.049.049 0 01-.048.058zm-.989.97H.049A.049.049 0 010 2.1v-.88c0-.026.022-.048.049-.048.332 0 .507.112.515.117a.049.049 0 01.02.053l-.195.77a.049.049 0 01-.047.036zm-.244-.097h.206l.176-.696a.98.98 0 00-.382-.084z"/><path d="M1.27 2.344c-.23 0-.677-.194-.922-.31a.049.049 0 11.042-.088c.191.09.66.3.88.3.237 0 .797-.279.958-.362-.025-.033-.078-.077-.177-.077-.09 0-.205.036-.315.07-.118.038-.24.076-.344.076-.202 0-.47-.096-.481-.1a.049.049 0 01.033-.092c.003 0 .263.095.448.095.09 0 .204-.037.315-.071.117-.037.239-.076.344-.076.228 0 .288.173.29.18a.049.049 0 01-.023.058c-.03.017-.747.397-1.048.397z"/><path d="M1.611 1.913a.049.049 0 01-.048-.049v-.049a.144.144 0 00-.112-.141l-.943-.228a.049.049 0 01.023-.095l.942.228c.11.025.187.123.187.236v.05a.049.049 0 01-.049.048zm-.28-.735a.049.049 0 01-.049-.05c0-.016.006-.414.45-.681a.049.049 0 01.05.084c-.394.237-.402.584-.402.598a.049.049 0 01-.049.049z"/></g></svg>