<svg xmlns="http://www.w3.org/2000/svg" viewBox="0 0 50 50"><path d="M11.2 14.9h20.2c.4 0 .7-.3.7-.7s-.3-.7-.7-.7H11.2c-.4 0-.7.3-.7.7s.3.7.7.7zm27.6 7.4H11.2c-.4 0-.7.3-.7.7s.3.7.7.7h27.5c.4 0 .7-.3.7-.7s-.2-.7-.6-.7zm0-4.4H11.2c-.4 0-.7.3-.7.7s.3.7.7.7h27.5c.4 0 .7-.3.7-.7s-.2-.7-.6-.7zm0-4.4h-3.9c-.4 0-.7.3-.7.7s.3.7.7.7h3.9c.4 0 .7-.3.7-.7s-.3-.7-.7-.7zM50 6.2V4.3c0-.8-.7-1.4-1.5-1.3-.1-1.7-1.6-3-3.3-3S42 1.3 41.9 3c-.8-.1-1.5.5-1.5 1.3v1.9c0 .8.7 1.4 1.5 1.3v.8H18.4c-.4 0-.7.1-.9.4l-.8.8-.8-.8c-.2-.2-.6-.4-.9-.4H8.1v-.8c.8 0 1.5-.5 1.5-1.3V4.3c0-.8-.7-1.4-1.5-1.3-.2-1.7-1.6-3-3.3-3S1.6 1.3 1.5 3C.7 3 0 3.5 0 4.3v1.9c0 .8.7 1.4 1.5 1.3v18.4c0 .4.3.7.7.7s.7-.3.7-.7V7.5h3.7v35H2.9V29.3c0-.4-.3-.7-.7-.7s-.7.3-.7.7v13.2C.7 42.4 0 43 0 43.8v1.9c0 .8.7 1.4 1.5 1.3.1 1.7 1.6 3 3.3 3s3.2-1.3 3.3-3c.8.1 1.5-.5 1.5-1.3v-1.9c0-.8-.7-1.4-1.5-1.3v-.8h26.1c.4 0 .7-.1.9-.4l.8-.8.8.8c.2.2.6.4.9.4h4.3v.8c-.8 0-1.5.5-1.5 1.3v1.9c0 .8.7 1.4 1.5 1.3.1 1.7 1.6 3 3.3 3s3.2-1.3 3.3-3c.8.1 1.5-.5 1.5-1.3v-1.9c0-.8-.7-1.4-1.5-1.3v-35c.8.1 1.5-.5 1.5-1.3zm-4.8-4.7c.9 0 1.7.7 1.8 1.6h-3.7c.2-1 1-1.6 1.9-1.6zm-40.4 0c.9 0 1.7.7 1.8 1.6H3c.1-1 .9-1.6 1.8-1.6zm0 47c-.9 0-1.7-.7-1.8-1.6h3.7c-.2 1-1 1.6-1.9 1.6zm3.3-3H1.5v-1.6h6.6v1.6zM1.5 6.1V4.5h6.6v1.6H1.5zm36.2 34.1l-.8-.8c-.5-.5-1.4-.5-1.9 0l-.8.8h-26V9.8H15l.8.8c.5.5 1.4.5 1.9 0l.8-.8h23.4v30.4h-4.2zm7.5 8.3c-.9 0-1.7-.7-1.8-1.6H47c-.1 1-.9 1.6-1.8 1.6zm3.3-3h-6.6v-1.6h6.6v1.6zm-5.1-3v-35h3.7v35h-3.7zM41.9 6.1V4.5h6.6v1.6h-6.6zm-3.1 25H11.2c-.4 0-.7.3-.7.7 0 .4.3.7.7.7h27.5c.4 0 .7-.3.7-.7.1-.4-.2-.7-.6-.7zM30 35.4H11.2c-.4 0-.7.3-.7.7s.3.7.7.7H30c.4 0 .7-.3.7-.7s-.3-.7-.7-.7zm8.8-8.7H11.2c-.4 0-.7.3-.7.7 0 .4.3.7.7.7h27.5c.4 0 .7-.3.7-.7.1-.4-.2-.7-.6-.7z" fill="#36871d"/></svg>