<svg version="1.1" id="Capa_1" xmlns="http://www.w3.org/2000/svg" x="0" y="0" viewBox="0 0 50 50" xml:space="preserve"><style>.st0{fill:#36871d}</style><path class="st0" d="M42.7 7.3C38 2.6 31.7 0 25 0S12 2.6 7.3 7.3C2.6 12 0 18.3 0 25s2.6 13 7.3 17.7C12 47.4 18.3 50 25 50s13-2.6 17.7-7.3C47.4 38 50 31.7 50 25s-2.6-13-7.3-17.7zM25 47.1C12.8 47.1 2.9 37.2 2.9 25S12.8 2.9 25 2.9 47.1 12.8 47.1 25 37.2 47.1 25 47.1z"/><path class="st0" d="M25 7.8c-3 0-5.4 2.4-5.4 5.4s2.4 5.4 5.4 5.4 5.4-2.4 5.4-5.4S28 7.8 25 7.8zm0 7.8c-1.3 0-2.4-1.1-2.4-2.4s1.1-2.4 2.4-2.4 2.4 1.1 2.4 2.4-1.1 2.4-2.4 2.4zm4.9 23.5V21.5H18.2v2.9h2V39h-2v3h13.7v-2.9h-2zm-2.9 0h-4V24.4h4v14.7z"/></svg>