<svg xmlns="http://www.w3.org/2000/svg" version="1.1" id="Capa_1" x="0" y="0" xml:space="preserve" width="45" height="35"><style type="text/css" id="style2">.st0{fill:#2c1f77}</style><g id="g12" transform="matrix(.99882 0 0 .99997 .014 0)"><path class="st0" d="M44.1 15.2h-2.8c-.1 0-.2 0-.3.1-1.8.9-3.5 2-5 3.4-.6-2.2-1.8-4.1-3.5-5.6-.7-.6-1.4-1.1-2.2-1.5.3-.1.4-.3.4-.6 0-.4-.3-.7-.7-.7h-.5c-.1-3.6-2.9-6.5-6.4-6.9v-.5C23.2 1.3 22 0 20.4 0c-1.5 0-2.8 1.3-2.8 2.8v.5c-1.6.2-3.1.9-4.2 2-.3.3-.3.7 0 .9.3.3.7.3.9 0 1.1-1.1 2.6-1.7 4.1-1.7h3.9c3.2 0 5.8 2.5 5.9 5.7H12.6c0-.7.2-1.3.4-2 .1-.3 0-.7-.4-.9-.3-.1-.7 0-.9.4-.3.8-.5 1.6-.5 2.4h-.5c-.4 0-.7.3-.7.7 0 .3.2.5.4.6-1.2.6-2.2 1.4-3.2 2.4-2.1 2.3-3.2 5.5-2.9 8.6.1 1.2.3 2.4.6 3.5-.3-.1-.6-.3-1-.3L1.5 25c-.4-.1-.7.1-.8.5l-.6 2.6c-.3 1.4 0 2.8.8 4 .1.2.3.3.5.3.1 0 .3 0 .4-.1.3-.2.4-.6.1-.9-.6-.8-.8-1.9-.6-2.9l.5-2 2 .5c.5.1.9.3 1.3.6-.6 1.6-.4 3.4.4 4.9-.5.3-1.2.4-1.8.2-.3-.1-.7.1-.8.4-.1.3.1.7.4.8 1.1.4 2.2.2 3-.4 1.7 2 4.4 1.9 6 .3l.3-.3c.6.4 1.2.6 1.9.6.3 0 .5 0 .8-.1.6-.1 1.2-.4 1.6-.7h13.5c1.3 0 2.5-.7 3.1-1.8.5-.9.9-1.8 1.3-2.8.1-.3.4-.6.8-.7 1.7-.4 3.1-1.7 3.7-3.4v-.1c.1-.3-.1-.7-.4-.8-.3-.1-.7.1-.8.4v.1c-.4 1.3-1.4 2.2-2.7 2.5-.8.2-1.4.7-1.7 1.5-.3.9-.8 1.8-1.2 2.6-.4.7-1.1 1.2-2 1.2H18.2c.7-1.1 1-2.4.7-3.8l-.6-2.6c-.1-.4-.4-.6-.8-.5l-2.6.6c-.6.1-1.1.4-1.6.7-.2-.4-.5-.7-.8-1.1L10 22.9c-.3-.3-.7-.3-.9 0l-2.4 2.4c-.1.1-.2.2-.2.3-.2-1-.4-2.1-.5-3.2-.3-2.8.7-5.5 2.5-7.6 1.9-2.1 4.6-3.3 7.4-3.3h9.3c2.4 0 4.8.9 6.6 2.5 1.8 1.6 3 3.7 3.3 6 0 .2.2.5.4.5.2.1.5 0 .7-.2 1.6-1.6 3.4-2.9 5.4-3.9h1.1c-1.4 1.5-2.5 3.1-3.3 4.8-.2.3 0 .7.3.9.3.2.7 0 .9-.3 1-2 2.4-3.9 4.2-5.6.2-.2.3-.5.2-.7-.4-.1-.6-.3-.9-.3zM20.4 1.3c.8 0 1.5.7 1.5 1.5 0 .2 0 .3-.1.4H19v-.4c0-.8.6-1.5 1.4-1.5zm-5.2 25.6l2-.5.5 2c.5 1.9-.7 3.8-2.6 4.3-.5.1-1.1 0-1.6-.3.8-1.5 1-3.3.4-4.9.3-.2.8-.5 1.3-.6zm-5.7-2.6l2 2c2.5 2.5 1.2 6.8-1.3 7.4v-2.5l1.2-1.1c.3-.2.3-.7.1-.9-.2-.3-.7-.3-.9-.1l-.3.3V29c0-.4-.3-.7-.7-.7-.4 0-.7.4-.7.7v2l-.3-.2c-.3-.2-.7-.1-.9.2-.2.3-.1.7.2.9l1 .6v1.1C6.4 33 5 28.8 7.6 26.2z" id="path4" fill="#2c1f77"/><path class="st0" d="M40.2 11.5c.7 0 1.2.5 1.2 1.2V14c0 .4.3.7.7.7.4 0 .7-.3.7-.7v-1.3c0-1.4-1.1-2.5-2.5-2.5-.8 0-1.3-.5-1.3-1.2V6.8c0-.7.5-1.2 1.2-1.2h1.7c1.4 0 2.5-1.1 2.5-2.5v-.6c0-.4-.3-.7-.7-.7-.4 0-.7.3-.7.7V3c0 .7-.5 1.2-1.2 1.2h-1.7c-1.4 0-2.5 1.1-2.5 2.5V9c.1 1.4 1.2 2.5 2.6 2.5z" id="path6" fill="#2c1f77"/><path class="st0" d="M44.1 8.3c-.4 0-.7.3-.7.7v4.7c0 .4.3.7.7.7.4 0 .7-.3.7-.7V9c0-.4-.3-.7-.7-.7z" id="path8" fill="#2c1f77"/><path class="st0" d="M40.4 3.4c.4 0 .7-.3.7-.7V.9c0-.4-.3-.7-.7-.7-.4 0-.7.3-.7.7v1.8c0 .5.3.7.7.7z" id="path10" fill="#2c1f77"/></g></svg>