<svg xmlns="http://www.w3.org/2000/svg" width="50" height="50"><g fill="#36871d"><path class="st0" d="M47.436 9.66l-1.001-2.49-1.701 2.092c0 .1-5.505 6.672-12.81 7.668-1.401.2-2.702.399-3.903.697.3-5.577-2.001-10.855-6.805-15.735L19.314 0l-.8 2.59c0 .099-1.701 5.676-5.905 8.265-4.603 2.789-7.605 5.876-9.006 9.461a13.91 13.843 0 00-.1 10.557c1 2.29 2.802 4.183 5.204 5.179.2.1.5.199.7.199-.1 1.593 0 3.187.4 4.68-.9.1-1.7.1-2.502.1-2.101 0-4.203-.199-6.204-.797L0 43.222c2.402.697 4.904 1.096 7.305.996 1.201 0 2.502-.1 3.703-.2a15.011 14.939 0 001.902 2.49c2.602 2.39 6.004 3.586 9.607 3.486 5.404-.1 10.608-1.992 14.811-5.278l.5-.398c4.404-3.486 17.714-13.843 9.608-34.658zM9.907 32.964a6.644 6.644 0 01-3.502-3.485c-1-2.59-1-5.478.1-8.067 1.2-2.888 3.703-5.478 7.706-7.868 2.802-1.892 5.003-4.481 6.304-7.569a16.018 16.018 0 014.103 12.549c-3.602 1.095-6.805 2.987-9.507 5.477-2.401 2.59-4.303 5.577-5.204 8.963zm26.02 8.764l-.5.399c-6.505 5.079-16.113 6.075-20.216 1.991-.3-.298-.5-.597-.8-.796 6.605-1.494 14.61-5.279 22.717-14.042l-2.302-2.092c-8.006 8.465-15.712 11.95-21.816 13.246-.4-1.494-.6-2.988-.4-4.582a16.397 16.397 0 014.903-9.56c3.303-3.287 8.206-5.278 14.911-6.274a24.083 24.083 0 0012.91-6.872c5.404 17.13-5.304 25.395-9.407 28.582z"/><path class="st0" d="M36.928 24.898l2.401 1.991c.701-.796 1.402-1.593 2.002-2.49l-2.502-1.892c-.6.797-1.3 1.594-1.901 2.39z"/></g></svg>