<svg xmlns="http://www.w3.org/2000/svg" version="1.1" id="Capa_1" x="0" y="0" xml:space="preserve" width="35" height="37"><style type="text/css" id="style2">.st0{fill:#2c1f77}</style><g id="g8" transform="scale(1.0606 1.05714)"><path class="st0" d="M16.5 16.8c2.2 0 4-1.8 4-4.1s-1.8-4.1-4-4.1-4 1.8-4 4.1 1.8 4.1 4 4.1zm0-6.1c1.1 0 2 .9 2 2.1 0 1.2-.9 2.1-2 2.1s-2-.9-2-2.1c0-1.2.9-2.1 2-2.1z" id="path4" fill="#2c1f77"/><path class="st0" d="M29.3 23.6h-6.7c3.1-3.1 6-6.1 6-11.3 0-7-5.2-12.3-12.1-12.3C9.6 0 4.4 5.3 4.4 12.3c0 5.2 2.9 8.2 6 11.3H3.7L0 35h33zM6.4 12.3C6.4 6.4 10.6 2 16.5 2c5.8 0 10.1 4.3 10.1 10.3 0 6.6-5.5 9-10.1 14.7-1.4-1.7-2.8-3.1-4.3-4.5-3.2-3.1-5.8-5.6-5.8-10.2zM3.6 30.4h7.3v-2.1H4.3l.9-2.7h7.3c2.7 2.7 3.4 4.1 4 4.9.6-.8 1.3-2.2 4-4.9h7.3l.9 2.7h-6.6v2.1h7.3l.8 2.5H2.8z" id="path6" fill="#2c1f77"/></g></svg>