<svg data-name="Слой 1" xmlns="http://www.w3.org/2000/svg" xmlns:xlink="http://www.w3.org/1999/xlink" viewBox="0 0 190 134"><defs><linearGradient id="a" x1="68.56" y1="25.64" x2="86.52" y2="25.64" gradientUnits="userSpaceOnUse"><stop offset="0" stop-color="#fffade"/><stop offset="1" stop-color="#d4db9c"/></linearGradient><linearGradient id="b" x1="103.11" y1="25.73" x2="121.4" y2="25.73" xlink:href="#a"/><linearGradient id="c" x1="65.1" y1="45.75" x2="89.07" y2="45.75" xlink:href="#a"/><linearGradient id="d" x1="100.93" y1="45.75" x2="124.9" y2="45.75" xlink:href="#a"/><linearGradient id="e" x1="78.27" y1="55.36" x2="111.73" y2="55.36" xlink:href="#a"/><linearGradient id="f" x1="89.15" y1="14.63" x2="100.87" y2="14.63" xlink:href="#a"/></defs><path d="M68.72 40.25S65.76 16.48 85 11c0 0-8.2 9-9.88 15.65A53.34 53.34 0 0186.31 14s3.45 20.3-17.59 26.25z" fill="url(#a)"/><path d="M104.28 11.1s21.73 10 16.23 29.26c0 0-3.34-11.73-8.09-16.65a53.36 53.36 0 014.9 16.18s-19.05-7.72-13.04-28.79z" fill="url(#b)"/><path d="M65.1 50.52s5.53-15.06 24-12.55c0 0-4.48 18.75-24 15.45 0 0 9.6-3.61 12.44-7.67 0 0-8.95 5.08-12.44 4.77z" fill="url(#c)"/><path d="M124.9 50.52s-5.53-15.06-24-12.55c0 0 4.48 18.75 24 15.45 0 0-9.6-3.61-12.44-7.67 0 0 8.95 5.08 12.44 4.77z" fill="url(#d)"/><path d="M78.27 55.86s16.14 15.06 33.46-.46c0 0-14.29-14.87-31.42-1.59a59.45 59.45 0 0017.46 2.71s-5.54 2.65-19.5-.66z" fill="url(#e)"/><path d="M95 29.25S82.29 17.43 94.34 0c0 0-1.65 11.16 0 18.09 0 0 1.12 0 1.78-16.44 0 0 11.39 13.14-1.12 27.6z" fill="url(#f)"/><path fill="#fff6c7" d="M37.65 68.63h114.7v2.09H37.65zm15.64 5.5h83.42v1.05H53.29zM102 126a7 7 0 11-13.9 0H87a8 8 0 1016 0h-1z"/><path d="M99.23 126a4.22 4.22 0 11-8.44 0h-1a5.26 5.26 0 1010.52 0h-1zm-38.11-1.59h67.78v1.57H61.12z" fill="#fff6c7"/><path d="M6.67 115.52h-1.2V107H1.76v8.5H.57V106h6.1zm6.92-7.08v7.08h-1.15v-6.08h-1.86l-.11 2.4a7.28 7.28 0 01-.53 2.83 1.52 1.52 0 01-1.42.85h-.38v-1.06h.29a.84.84 0 00.68-.65 9.77 9.77 0 00.26-2.31l.11-3zm5.46 7.08a2.51 2.51 0 01-.15-.77 1.84 1.84 0 01-1.57.9 2 2 0 01-1.49-.54 2 2 0 01-.54-1.52 2.16 2.16 0 01.73-1.71 3 3 0 012-.65h.85v-.75a1.25 1.25 0 00-.28-.91 1.2 1.2 0 00-.86-.26 1.15 1.15 0 00-.84.31 1 1 0 00-.33.78h-1.15a1.89 1.89 0 01.32-1 2.24 2.24 0 01.86-.78 2.53 2.53 0 011.2-.28 2.31 2.31 0 011.65.54 2.13 2.13 0 01.57 1.57V114a4.6 4.6 0 00.22 1.42v.1zm-1.54-.92a1.52 1.52 0 00.81-.24 1.44 1.44 0 00.56-.59v-1.68h-.65a2.18 2.18 0 00-1.3.37 1.16 1.16 0 00-.48 1 1.32 1.32 0 00.25.88 1 1 0 00.81.26zm9.24.92h-1.14v-3h-2.54v3h-1.16v-7.08h1.16v3.07h2.54v-3.07h1.14zm6.25-6.1h-1.88v6.1H30v-6.1h-1.92v-1h5zm4.77 6.1a2.51 2.51 0 01-.15-.77 1.82 1.82 0 01-1.56.9 2 2 0 01-1.49-.54 2 2 0 01-.54-1.52 2.13 2.13 0 01.73-1.71 3 3 0 012-.65h.84v-.75a1.21 1.21 0 00-.28-.91 1.41 1.41 0 00-1.7.05 1 1 0 00-.32.78h-1.15a1.81 1.81 0 01.32-1 2.24 2.24 0 01.86-.78 2.53 2.53 0 011.2-.28 2.27 2.27 0 011.64.54 2.1 2.1 0 01.58 1.57V114a4.32 4.32 0 00.22 1.42v.1zm-1.53-.92a1.47 1.47 0 00.8-.24 1.32 1.32 0 00.56-.59v-1.68H37a2.15 2.15 0 00-1.29.37 1.16 1.16 0 00-.48 1 1.32 1.32 0 00.24.88 1.06 1.06 0 00.77.26zm4.4-6.16h1.16v6.09h2.54v-6.09h1.15v6.09h.74l-.12 3.09h-1v-2.1h-4.47zm10.69 0h1.15v7.08h-1.15v-5.16l-2.55 5.16h-1.15v-7.08h1.15v5.17zm7.59 0v7.08h-1.16v-2.75H56.4l-1.4 2.75h-1.25l1.52-3a1.8 1.8 0 01-.87-.76 2.38 2.38 0 01-.3-1.2 2.09 2.09 0 01.62-1.57 2.37 2.37 0 011.68-.59zm-3.67 2.17a1.25 1.25 0 00.28.85 1 1 0 00.76.31h1.47v-2.35h-1.37a1.1 1.1 0 00-.83.33 1.2 1.2 0 00-.31.86zm10.67-1.3a1.12 1.12 0 00-.87.4 1.41 1.41 0 00-.37 1h-1.09a2.33 2.33 0 01.32-1.16 2.56 2.56 0 01.87-.89 2.15 2.15 0 011.14-.33 2.23 2.23 0 011.88 1 4.33 4.33 0 01.72 2.62v.2a4.78 4.78 0 01-.33 1.81 2.85 2.85 0 01-.92 1.27 2.28 2.28 0 01-3-.27 2.65 2.65 0 01-.66-1.84h1.09a1.74 1.74 0 00.36 1.13 1.09 1.09 0 00.87.45 1.16 1.16 0 001-.6 3.38 3.38 0 00.45-1.66h-2v-1h2a3.27 3.27 0 00-.45-1.55 1.12 1.12 0 00-1.01-.58zm9.08-.87v7.08h-1.18v-6.08H72l-.11 2.4a7.28 7.28 0 01-.53 2.83 1.52 1.52 0 01-1.42.85h-.39v-1.06h.3a.85.85 0 00.68-.65 9.77 9.77 0 00.26-2.31l.11-3zm5.6 0h1.15v7.08H80.6v-5.16l-2.55 5.16H76.9v-7.08h1.15v5.17zm7.4.98h-1.88v6.1H85v-6.1h-1.92v-1h5zm6.2 6.1h-1.15v-3h-2.54v3h-1.16v-7.08h1.16v3.07h2.54v-3.07h1.15zm3.08-4.64h1.45a2.18 2.18 0 011.61.62 2.3 2.3 0 01.6 1.68 2.38 2.38 0 01-.6 1.7 2.15 2.15 0 01-1.61.64h-2.59v-7.08h1.14zm0 1v2.66h1.43a1 1 0 00.79-.34 1.49 1.49 0 00.29-1 1.56 1.56 0 00-.28-1 .91.91 0 00-.77-.38zm5.81 3.65h-1.15v-7.08h1.15zm4.04-4.53l1.2-2.59h1.34l-1.91 3.5 1.95 3.58h-1.32l-1.24-2.65-1.25 2.65h-1.33l2-3.58-1.91-3.5H106zm11.44 4.52h-1.16V113a4.35 4.35 0 01-1.3.19 2.13 2.13 0 01-1.68-.68 2.8 2.8 0 01-.61-1.91v-2.14H115v2.17c0 1 .41 1.56 1.14 1.56a4.15 4.15 0 001.3-.2v-3.53h1.16zm5.43 0a2.77 2.77 0 01-.16-.77 1.81 1.81 0 01-1.56.9 2 2 0 01-1.49-.54 2 2 0 01-.54-1.52 2.13 2.13 0 01.73-1.71 3 3 0 012-.65h.84v-.75a1.25 1.25 0 00-.27-.91 1.21 1.21 0 00-.86-.26 1.15 1.15 0 00-.84.31 1 1 0 00-.33.78h-1.15a1.89 1.89 0 01.32-1 2.24 2.24 0 01.86-.78 2.53 2.53 0 011.2-.28 2.31 2.31 0 011.65.54 2.13 2.13 0 01.57 1.57V114a4.32 4.32 0 00.22 1.42v.1zm-1.54-.92a1.52 1.52 0 00.81-.24 1.35 1.35 0 00.55-.59v-1.68h-.65a2.17 2.17 0 00-1.29.37 1.16 1.16 0 00-.48 1 1.32 1.32 0 00.24.88 1.08 1.08 0 00.84.26zm6.83 1.05a2.54 2.54 0 01-2-.79 3.39 3.39 0 01-.72-2.31v-.86a4 4 0 01.69-2.48 2.26 2.26 0 011.91-.9 2.18 2.18 0 011.85.79 4.09 4.09 0 01.63 2.47v.76h-3.93v.16a2.65 2.65 0 00.42 1.66 1.51 1.51 0 001.23.51 1.91 1.91 0 00.89-.19 2.26 2.26 0 00.73-.61l.6.73a2.6 2.6 0 01-2.3 1.06zm-2.25-9.1a.71.71 0 01.18-.5.69.69 0 01.53-.2.66.66 0 01.72.7.69.69 0 01-.18.49.72.72 0 01-.54.2.65.65 0 01-.71-.69zm2.12 2.76a1.21 1.21 0 00-1.06.49 2.93 2.93 0 00-.39 1.53h2.78v-.15a2.69 2.69 0 00-.37-1.44 1.1 1.1 0 00-.96-.43zm.68-2.75a.73.73 0 01.18-.5.72.72 0 011.25.5.74.74 0 01-1.25.49.69.69 0 01-.18-.49zm3.28 8.96v-7.08h2.36a3 3 0 011.85.5 1.7 1.7 0 01.64 1.44 1.59 1.59 0 01-.25.89 1.62 1.62 0 01-.75.6 1.59 1.59 0 01.87.58 1.72 1.72 0 01.33 1.06 1.85 1.85 0 01-.61 1.5 2.6 2.6 0 01-1.72.51zm1.15-4.07h1.2c.9 0 1.35-.34 1.35-1s-.43-1-1.27-1h-1.28zm0 1v2.14h1.58q1.17 0 1.17-1.08c0-.7-.39-1.06-1.18-1.06zM143 106h1.2v8.5h3.7V106h1.19v8.48h.91l-.11 3.35h-1.07v-2.3H143zm10.82 9.65a2.55 2.55 0 01-2-.79 3.45 3.45 0 01-.71-2.31v-.86a4.06 4.06 0 01.68-2.48 2.28 2.28 0 011.92-.9 2.18 2.18 0 011.85.79 4 4 0 01.62 2.47v.76h-3.93v.16a2.64 2.64 0 00.43 1.66 1.5 1.5 0 001.23.51 1.94 1.94 0 00.89-.19 2.26 2.26 0 00.73-.61l.6.73a2.6 2.6 0 01-2.31 1.06zm-.13-6.34a1.2 1.2 0 00-1.06.49 2.93 2.93 0 00-.39 1.53H155v-.15a2.7 2.7 0 00-.36-1.44 1.1 1.1 0 00-.95-.43zm7.66-.87h1.15v7.08h-1.15v-5.16l-2.55 5.16h-1.15v-7.08h1.15v5.17zm.68-2.58a1.61 1.61 0 01-.54 1.27 2.27 2.27 0 01-2.82 0 1.63 1.63 0 01-.54-1.27h1a1 1 0 00.25.71.94.94 0 00.72.26 1 1 0 00.72-.25 1 1 0 00.25-.72zm7.27 2.58v7.08h-1.15v-6.08h-1.86l-.11 2.4a7.28 7.28 0 01-.53 2.83 1.52 1.52 0 01-1.42.85h-.38v-1.06h.29a.84.84 0 00.68-.65 9.77 9.77 0 00.26-2.31l.11-3zm1.59 3.21a3.74 3.74 0 01.74-2.44 2.63 2.63 0 013.94 0 3.66 3.66 0 01.77 2.39v.74a3.69 3.69 0 01-.75 2.44 2.44 2.44 0 01-2 .89 2.47 2.47 0 01-2-.87 3.64 3.64 0 01-.76-2.35zm1.15.67a3 3 0 00.43 1.72 1.3 1.3 0 001.15.62c1 0 1.53-.73 1.56-2.21v-.8a3 3 0 00-.42-1.71 1.35 1.35 0 00-1.16-.63 1.3 1.3 0 00-1.13.63 3 3 0 00-.43 1.71zm10.73 3.2h-1.15v-3h-2.54v3h-1.15v-7.08h1.15v3.07h2.54v-3.07h1.15zm5.46 0a2.51 2.51 0 01-.15-.77 1.83 1.83 0 01-1.56.9 2 2 0 01-1.5-.54 2.08 2.08 0 01-.53-1.52 2.13 2.13 0 01.73-1.71 2.94 2.94 0 012-.65h.85v-.75a1.21 1.21 0 00-.28-.91 1.19 1.19 0 00-.85-.26 1.17 1.17 0 00-.85.31 1 1 0 00-.32.78h-1.17a1.89 1.89 0 01.32-1 2.31 2.31 0 01.86-.78 2.54 2.54 0 011.21-.28 2.27 2.27 0 011.64.54 2.1 2.1 0 01.58 1.57V114a4.07 4.07 0 00.22 1.42v.1zm-1.54-.92a1.5 1.5 0 00.81-.24 1.38 1.38 0 00.56-.59v-1.68h-.65a2.18 2.18 0 00-1.3.37 1.17 1.17 0 00-.47 1 1.32 1.32 0 00.24.88 1 1 0 00.81.26z" fill="#eadb9d"/><path d="M0 83.85v-.64h4.36v.64l-1 .69V88a5.39 5.39 0 00.12 1.17 3.57 3.57 0 00.38 1 1.82 1.82 0 00.72.71 2 2 0 001.07.26H7v-6.71l-.86-.58v-.64h4v.64l-.84.58V97.7l1 .7v.6H6v-.6l1-.7v-5H5.62a4.51 4.51 0 01-3.35-1.28A4.65 4.65 0 011 88v-3.46zM11.41 99v-.65l.73-.4q2.77-11.82 3.14-13.27h2.18l3.23 13.2.72.47V99h-3.73v-.52l.58-.45-.65-2.85h-3.38L13.59 98l.67.37V99zm3.1-5h2.82l-1.53-6.66h.24c-.41 1.66-.92 3.89-1.53 6.66zm8.08 4.45l.84-.66V85.94l-.69-.56v-.58h3.56v.58l-.69.56v9.32l.76-2.55L28.89 86c-.21-.19-.45-.4-.72-.61v-.59h3.58v.58l-.7.56v11.85l.83.66V99H28v-.58l.85-.66v-9.04l-.79 2.6-2.44 6.46.82.64V99h-3.85zm3-15.62a2.2 2.2 0 001.63.57 2.4 2.4 0 001.71-.57 2.19 2.19 0 00.59-1.7l-.79-.13a1 1 0 01-.48.7 1.86 1.86 0 01-1.05.3 1.66 1.66 0 01-1-.27 1 1 0 01-.42-.7l-.38.07-.39.06a2.29 2.29 0 00.56 1.67zM34 99v-.6l.88-.52V86l-.74-.57v-.6h3.61v.6L37 86v5.19h3.15V86l-.72-.57v-.6H43v.6l-.7.57v12l.88.52V99h-3.85v-.6l.83-.52v-5.51H37v5.54l.88.52V99zm11.25-13.59v-.61h3.84v.61l-.82.63v4.13h1.19a8.47 8.47 0 011.28.09 4.61 4.61 0 011.1.31 2.91 2.91 0 01.9.58 2.59 2.59 0 01.58.93 3.81 3.81 0 01.21 1.32v2.34a3.59 3.59 0 01-.31 1.56 2.43 2.43 0 01-.89 1 4.27 4.27 0 01-1.28.53 6.19 6.19 0 01-1.55.17h-4.12v-.58l.75-.56V86zm3 12.33h1.25a1.68 1.68 0 001.39-.5 2.33 2.33 0 00.41-1.51v-2.35a2.2 2.2 0 00-.43-1.48 1.71 1.71 0 00-1.39-.5h-1.21zM54.87 99v-.6l.87-.64V86l-.74-.61v-.61h3.57v.61l-.71.56v11.84l.82.64V99zm5.94 0v-.6l.88-.64V85.91l-.75-.58v-.55h7.25V88h-1.06l-.59-1.88h-2.65v5.24h1.85l.56-1.1h.62v3.43h-.62l-.56-1h-1.85V97a.76.76 0 01-.09.41.57.57 0 01-.36.22v.11h3.35l.73-1.9h.94V99zm14.56-3.54v-7a3.65 3.65 0 011-2.8 4 4 0 012.86-1 3.46 3.46 0 012.42.76l.2-.66h1.37v4h-2.1v-.38a3.17 3.17 0 00-.39-1.7 1.51 1.51 0 00-1.38-.68 1.62 1.62 0 00-1.26.57 2.61 2.61 0 00-.52 1.81v7.07c0 1.61.61 2.41 1.82 2.41a1.65 1.65 0 001.44-.56 2.85 2.85 0 00.41-1.68v-.78h2.21v.8a3.28 3.28 0 01-1.12 2.7 4.48 4.48 0 01-2.91.9 4.34 4.34 0 01-2.92-1 3.48 3.48 0 01-1.13-2.78zm10.53-.02v-7.1a3.6 3.6 0 011.1-2.76 4.19 4.19 0 013-1 4.25 4.25 0 013 1 3.56 3.56 0 011.13 2.76v7.1A3.57 3.57 0 0193 98.2a4.25 4.25 0 01-3 1 4.15 4.15 0 01-3-1 3.59 3.59 0 01-1.1-2.76zm2.21 0q0 2.37 1.89 2.37a1.66 1.66 0 001.42-.67 2.8 2.8 0 00.49-1.7v-7.1a2.77 2.77 0 00-.49-1.71A1.65 1.65 0 0090 86a1.69 1.69 0 00-1.43.59 2.85 2.85 0 00-.46 1.78zM96.58 99v-.6l.87-.64V85.94l-.74-.56v-.6h4.11a6.32 6.32 0 011.56.17 3.9 3.9 0 011.27.54 2.5 2.5 0 01.88 1 3.47 3.47 0 01.32 1.57v2.52a3.83 3.83 0 01-.21 1.33 2.54 2.54 0 01-.58.93 3 3 0 01-.89.57 4.4 4.4 0 01-1.11.32 8.38 8.38 0 01-1.28.09h-1.19v3.93l.83.64V99zm3-6.4h1.23a1.74 1.74 0 001.4-.51 2.29 2.29 0 00.43-1.5v-2.5a2.31 2.31 0 00-.42-1.51 1.66 1.66 0 00-1.38-.51h-1.25zm6.74-4.22l.08-3.6h8.3l.09 3.6h-1l-.72-2.27h-1.4v11.54l.86.65v.7h-4v-.7l.88-.65V86.11H108l-.67 2.27zM115.6 99v-.65l.73-.4c1.86-7.88 2.9-12.3 3.15-13.27h2.17l3.23 13.2.72.47V99h-3.72v-.52l.58-.45-.66-2.85h-3.37l-.65 2.82.67.37V99zm3.11-5h2.81L120 87.34h.24c-.42 1.66-.93 3.89-1.53 6.66zm12.46 5v-.65l1-.68V84.54l-.86-.69v-.66h8.06V87h-1.09l-.67-2.44h-3.17V97.7l1 .68V99zm9.7 0v-.6l.88-.64V85.94l-.75-.56v-.6h4.12a6.32 6.32 0 011.56.17 3.9 3.9 0 011.27.54 2.5 2.5 0 01.88 1 3.6 3.6 0 01.32 1.57v2.52a3.83 3.83 0 01-.21 1.33 2.68 2.68 0 01-.58.93 3 3 0 01-.89.57 4.4 4.4 0 01-1.11.32 8.38 8.38 0 01-1.28.09h-1.19v3.93l.83.64V99zm3-6.4h1.23a1.75 1.75 0 001.4-.51 2.29 2.29 0 00.42-1.5v-2.5a2.31 2.31 0 00-.41-1.51 1.69 1.69 0 00-1.39-.51h-1.25zM151 99v-.6l.87-.64V85.91l-.74-.58v-.55h7.24V88h-1l-.59-1.88h-2.65v5.24h1.84l.56-1.1h.63v3.43h-.63l-.56-1h-1.84V97a.76.76 0 01-.09.41.57.57 0 01-.36.22v.11H157l.72-1.9h.95V99zm9.69-.55l.83-.66V85.94l-.69-.56v-.58h3.57v.58l-.69.56v9.32l.76-2.55L167 86c-.21-.19-.45-.4-.72-.61v-.59h3.57v.58l-.7.56v11.85l.84.66V99h-3.85v-.58l.86-.66v-9.04l-.79 2.6-2.44 6.46.81.64V99h-3.85zm3-15.62a2.2 2.2 0 001.63.57 2.38 2.38 0 001.7-.57 2.19 2.19 0 00.59-1.7l-.76-.13a1.08 1.08 0 01-.48.7 1.91 1.91 0 01-1 .27 1.62 1.62 0 01-1-.27 1 1 0 01-.43-.7l-.38.07-.39.06a2.29 2.29 0 00.5 1.7zM172.08 99v-.6l.88-.64V85.91l-.74-.58v-.55h7.24V88h-1.05l-.6-1.88h-2.64v5.24H177l.56-1.1h.63v3.43h-.63l-.56-1h-1.84V97a.76.76 0 01-.09.41.64.64 0 01-.36.22v.11h3.35l.72-1.9h1V99zm9.64 0v-.61l.88-.66V86l-.75-.58v-.62h4.39a7.2 7.2 0 011.41.11 3.26 3.26 0 011 .4 1.8 1.8 0 01.68.81 3.28 3.28 0 01.22 1.29v2.06a2.22 2.22 0 01-.29 1.14 1.64 1.64 0 01-.82.74 2.36 2.36 0 011.56 2.4v2.39q0 2.86-3.64 2.86zm2.57-1.29h2a1.4 1.4 0 001.1-.4 1.81 1.81 0 00.38-1.26v-2.31a1.84 1.84 0 00-.38-1.3 1.63 1.63 0 00-1.27-.41h-1.4V97a.89.89 0 01-.09.45.57.57 0 01-.36.22zm.45-6.77h1.44a1.08 1.08 0 00.91-.41 1.8 1.8 0 00.3-1.1v-2c0-.89-.4-1.34-1.21-1.34h-1.44z" fill="#d8c573"/></svg>