<svg data-name="Слой 1" xmlns="http://www.w3.org/2000/svg" xmlns:xlink="http://www.w3.org/1999/xlink" viewBox="0 0 96 100"><defs><linearGradient id="a" x1="5.55" y1="41.07" x2="34.38" y2="41.07" gradientUnits="userSpaceOnUse"><stop offset="0" stop-color="#f77e2d"/><stop offset="1" stop-color="#6d2e03"/></linearGradient><linearGradient id="b" x1="59.67" y1="-118.92" x2="88.52" y2="-118.92" gradientTransform="rotate(121.71 29.818 -38.04)" xlink:href="#a"/><linearGradient id="c" x1="0" y1="73.29" x2="38.48" y2="73.29" xlink:href="#a"/><linearGradient id="d" x1="31.49" y1="73.29" x2="69.98" y2="73.29" gradientTransform="matrix(-1 0 0 1 127.49 0)" xlink:href="#a"/><linearGradient id="e" x1="74.85" y1="88.69" x2="21.15" y2="88.69" xlink:href="#a"/><linearGradient id="f" x1="57.42" y1="23.43" x2="38.61" y2="23.43" xlink:href="#a"/></defs><path d="M5.81 64.48S1.06 26.39 32 17.67c0 0-13.16 14.44-15.86 25.07 0 0 5.71-10 17.92-20.31-.06 0 5.53 32.57-28.25 42.05z" fill="url(#a)"/><path d="M62.91 17.78S97.79 33.75 89 64.66c0 0-5.36-18.8-13-26.68 0 0 5.5 10.12 7.85 25.93-.03 0-30.6-12.37-20.94-46.13z" fill="url(#b)"/><path d="M0 80.93s8.88-24.12 38.48-20.1c0 0-7.18 30-38.48 24.75 0 0 15.41-5.78 20-12.29 0 0-14.4 8.14-20 7.64z" fill="url(#c)"/><path d="M96 80.93s-8.88-24.12-38.48-20.1c0 0 7.18 30 38.48 24.75 0 0-15.41-5.78-20-12.29 0 0 14.4 8.14 20 7.64z" fill="url(#d)"/><path d="M21.15 89.5s25.9 24.12 53.7-.74c0 0-22.94-23.83-50.43-2.55 0 0 11.21 4 28 4.34.02 0-8.86 4.24-31.27-1.05z" fill="url(#e)"/><path d="M48 46.86S27.59 27.93 46.94 0c0 0-2.64 17.88 0 29 0 0 1.8 0 2.86-26.35 0-.01 18.29 21.05-1.8 44.21z" fill="url(#f)"/></svg>