<svg data-name="Слой 1" xmlns="http://www.w3.org/2000/svg" viewBox="0 0 191 134"><path d="M69.08 40.25S66.1 16.48 85.47 11c0 0-8.24 9-9.93 15.65A53.23 53.23 0 0186.76 14s3.48 20.3-17.68 26.25zm35.75-29.15s21.85 10 16.32 29.26c0 0-3.36-11.73-8.13-16.65a53.18 53.18 0 014.91 16.18s-19.14-7.72-13.1-28.79z" fill="#2c1f77"/><path d="M65.44 50.52S71 35.46 89.54 38c0 0-4.5 18.75-24.1 15.45 0 0 9.65-3.61 12.51-7.67.05-.03-8.95 5.05-12.51 4.74zm60.12 0S120 35.46 101.46 38c0 0 4.5 18.75 24.1 15.45 0 0-9.65-3.61-12.51-7.67 0-.03 9 5.05 12.51 4.74z" fill="#2c1f77"/><path d="M78.68 55.86s16.22 15.06 33.64-.46c0 0-14.37-14.87-31.58-1.59a60 60 0 0017.54 2.71s-5.56 2.65-19.6-.66zM95.5 29.25S82.72 17.43 94.84 0c0 0-1.66 11.16 0 18.09 0 0 1.12 0 1.79-16.44 0 0 11.45 13.14-1.13 27.6zM37.85 68.63h115.31v2.09H37.85zm15.72 5.5h83.86v1.05H53.57zM102.5 126a7 7 0 01-14 0h-1a8 8 0 0016.08 0h-1z" fill="#2c1f77"/><path d="M99.75 126a4.24 4.24 0 01-8.48 0h-1a5.29 5.29 0 0010.58 0h-1zm-38.31-1.59h68.14v1.57H61.44zM0 83.85v-.64h4.38v.64l-1 .69V88a5.39 5.39 0 00.12 1.17 3.28 3.28 0 00.38 1 1.82 1.82 0 00.72.71 2.11 2.11 0 001.08.26h1.4v-6.71l-.86-.58v-.64h4v.64l-.85.58V97.7l1 .7v.6H6.06v-.6l1-.7v-5H5.65a4.55 4.55 0 01-3.37-1.28A4.65 4.65 0 011 88v-3.46zM11.47 99v-.65l.73-.4q2.8-11.79 3.16-13.24h2.19l3.24 13.2.73.47V99h-3.75v-.52l.59-.45-.66-2.85h-3.39L13.66 98l.68.37V99zm3.12-5h2.83l-1.54-6.65h.24c-.41 1.65-.92 3.88-1.53 6.65zm8.12 4.45l.84-.66V85.94l-.69-.56v-.58h3.58v.58l-.69.56v9.32l.76-2.55L29.05 86c-.22-.19-.46-.4-.73-.61v-.59h3.6v.58l-.71.56v11.85l.84.66V99h-3.86v-.58l.86-.66v-9.04l-.79 2.6-2.45 6.46.82.64V99h-3.92zm3-15.62a2.21 2.21 0 001.64.57 2.42 2.42 0 001.71-.57 2.19 2.19 0 00.59-1.7l-.77-.13a1 1 0 01-.48.7 1.88 1.88 0 01-1 .27 1.65 1.65 0 01-1-.27 1 1 0 01-.43-.7l-.38.07-.39.06a2.25 2.25 0 00.51 1.7zM34.17 99v-.6l.88-.52V86l-.74-.57v-.6h3.63v.6l-.74.57v5.19h3.17V86l-.72-.57v-.6h3.6v.6l-.73.57v12l.88.52V99h-3.86v-.6l.83-.52v-5.51H37.2v5.54l.89.52V99zm11.32-13.59v-.61h3.86v.61l-.82.63v4.13h1.19a8.29 8.29 0 011.28.09 4.77 4.77 0 011.12.31 3.17 3.17 0 01.9.58 2.59 2.59 0 01.58.93 3.81 3.81 0 01.21 1.32v2.34a3.59 3.59 0 01-.31 1.56 2.38 2.38 0 01-.9 1 4.17 4.17 0 01-1.28.53 6.21 6.21 0 01-1.56.17h-4.14v-.58l.75-.56V86zm3 12.33h1.25a1.71 1.71 0 001.4-.5 2.33 2.33 0 00.41-1.51v-2.35a2.2 2.2 0 00-.43-1.48 1.72 1.72 0 00-1.4-.5h-1.19zM55.16 99v-.6l.87-.64V86l-.72-.56v-.61h3.59v.61l-.72.56v11.79l.83.64V99zm5.97 0v-.6l.88-.64V85.91l-.75-.58v-.55h7.28V88h-1.06l-.59-1.88h-2.66v5.24h1.85l.57-1.1h.63v3.43h-.63l-.57-1h-1.85V97a.76.76 0 01-.09.41.64.64 0 01-.36.22v.11h3.36l.73-1.9h.95V99zm14.63-3.54v-7a3.66 3.66 0 011-2.8 4.07 4.07 0 012.88-1 3.47 3.47 0 012.43.76l.2-.66h1.38v4h-2.11v-.38a3.17 3.17 0 00-.39-1.7 1.51 1.51 0 00-1.38-.68 1.66 1.66 0 00-1.27.57 2.61 2.61 0 00-.5 1.82v7.07c0 1.61.61 2.41 1.83 2.41a1.67 1.67 0 001.45-.56 2.85 2.85 0 00.41-1.68v-.78h2.21v.8a3.27 3.27 0 01-1.11 2.7 4.54 4.54 0 01-2.94.9 4.4 4.4 0 01-2.93-1 3.49 3.49 0 01-1.16-2.79zm10.6-.02v-7.1a3.57 3.57 0 011.12-2.76 4.22 4.22 0 013-1 4.29 4.29 0 013 1 3.56 3.56 0 011.13 2.76v7.1a3.57 3.57 0 01-1.13 2.76 4.28 4.28 0 01-3 1 4.17 4.17 0 01-3-1 3.56 3.56 0 01-1.12-2.76zm2.21 0c0 1.58.64 2.37 1.9 2.37a1.68 1.68 0 001.43-.67 2.8 2.8 0 00.49-1.7v-7.1a2.77 2.77 0 00-.49-1.71 1.67 1.67 0 00-1.43-.63 1.69 1.69 0 00-1.43.59 2.84 2.84 0 00-.47 1.78zM97.08 99v-.6l.89-.64V85.94l-.75-.56v-.6h4.13a6.35 6.35 0 011.57.17 4 4 0 011.28.54 2.5 2.5 0 01.88 1 3.47 3.47 0 01.32 1.57v2.52a3.83 3.83 0 01-.21 1.33 2.54 2.54 0 01-.58.93 2.89 2.89 0 01-.9.57 4.4 4.4 0 01-1.11.32 8.52 8.52 0 01-1.29.09h-1.19v3.93l.83.64V99zm3-6.4h1.23a1.76 1.76 0 001.41-.51 2.29 2.29 0 00.43-1.5v-2.5a2.31 2.31 0 00-.42-1.51 1.69 1.69 0 00-1.39-.51h-1.26zm6.8-4.22l.08-3.6h8.34l.09 3.6h-1l-.72-2.27h-1.41v11.54l.86.65v.7h-4v-.7l.88-.65V86.11h-1.45l-.67 2.27zM116.21 99v-.65l.73-.4q2.81-11.82 3.16-13.27h2.19l3.25 13.2.73.47V99h-3.75v-.52l.58-.45-.66-2.85h-3.39L118.4 98l.68.37V99zm3.12-5h2.83l-1.54-6.65h.24c-.41 1.65-.92 3.88-1.53 6.65zm12.53 5v-.65l1-.68V84.54l-.86-.69v-.66h8.1V87H139l-.67-2.44h-3.19V97.7l1 .68V99zm9.75 0v-.6l.89-.64V85.94l-.75-.56v-.6h4.14a6.32 6.32 0 011.56.17 4 4 0 011.28.54 2.59 2.59 0 01.89 1 3.6 3.6 0 01.32 1.57v2.52a3.82 3.82 0 01-.22 1.33 2.54 2.54 0 01-.58.93 2.89 2.89 0 01-.9.57 4.4 4.4 0 01-1.11.32 8.52 8.52 0 01-1.29.09h-1.19v3.93l.83.64V99zm3-6.4h1.24a1.75 1.75 0 001.4-.51 2.29 2.29 0 00.43-1.5v-2.5a2.31 2.31 0 00-.42-1.51 1.69 1.69 0 00-1.39-.51h-1.26zm7.19 6.4v-.6l.88-.64V85.91l-.75-.58v-.55h7.29V88h-1.06l-.6-1.88h-2.66v5.24h1.86l.56-1.1h.68v3.43h-.63l-.56-1h-1.91V97a.76.76 0 01-.09.41.57.57 0 01-.36.22v.11h3.36l.73-1.9h1V99zm9.73-.55l.84-.66V85.94l-.69-.56v-.58h3.58v.58l-.69.56v9.32l.76-2.55 2.54-6.71c-.22-.19-.46-.4-.73-.61v-.59h3.6v.58l-.71.56v11.85l.84.66V99H167v-.58l.86-.66v-9.04l-.8 2.6-2.45 6.46.82.64V99h-3.88zm3-15.62a2.23 2.23 0 001.64.57 2.4 2.4 0 001.71-.57 2.23 2.23 0 00.6-1.7l-.78-.13a1 1 0 01-.48.7 1.86 1.86 0 01-1.05.27 1.67 1.67 0 01-1-.27 1 1 0 01-.42-.7l-.39.07-.39.06a2.29 2.29 0 00.56 1.7zM173 99v-.6l.88-.64V85.91l-.75-.58v-.55h7.29V88h-1.06l-.6-1.88h-2.66v5.24h1.85l.57-1.1h.63v3.43h-.63l-.57-1h-1.85V97a.76.76 0 01-.09.41.64.64 0 01-.36.22v.11H179l.73-1.9h1V99zm9.68 0v-.61l.88-.66V86l-.75-.58v-.62h4.41a7.2 7.2 0 011.41.11 3.23 3.23 0 011.05.4 1.89 1.89 0 01.69.81 3.28 3.28 0 01.22 1.29v2.06a2.22 2.22 0 01-.29 1.14 1.66 1.66 0 01-.83.74 2.35 2.35 0 011.53 2.4v2.39q0 2.86-3.66 2.86zm2.58-1.29h2a1.44 1.44 0 001.11-.4 1.86 1.86 0 00.38-1.26v-2.31a1.89 1.89 0 00-.38-1.3 1.65 1.65 0 00-1.28-.41h-1.41V97a.89.89 0 01-.09.45.57.57 0 01-.36.22zm.45-6.77h1.45a1.07 1.07 0 00.91-.41 1.8 1.8 0 00.3-1.1v-2c0-.89-.4-1.34-1.21-1.34h-1.45zm-179 24.58H5.5V107H1.77v8.5H.58V106h6.13zm6.95-7.08v7.08H12.5v-6.08h-1.86l-.11 2.4a7.07 7.07 0 01-.54 2.83 1.53 1.53 0 01-1.43.85h-.38v-1.06h.29a.85.85 0 00.69-.65 9.77 9.77 0 00.26-2.31l.11-3zm5.49 7.08a2.51 2.51 0 01-.15-.77 1.85 1.85 0 01-1.58.9 1.87 1.87 0 01-2-2.06 2.14 2.14 0 01.74-1.71 3 3 0 012-.65H19v-.75a1.21 1.21 0 00-.29-.91 1.17 1.17 0 00-.85-.26 1.16 1.16 0 00-.85.31 1 1 0 00-.33.78H15.5a1.89 1.89 0 01.32-1 2.26 2.26 0 01.87-.78 2.54 2.54 0 011.21-.28 2.31 2.31 0 011.65.54 2.1 2.1 0 01.58 1.57V114a4.32 4.32 0 00.22 1.42v.1zm-1.55-.92a1.47 1.47 0 00.81-.24 1.4 1.4 0 00.57-.59v-1.68h-.66a2.18 2.18 0 00-1.3.37 1.16 1.16 0 00-.48 1 1.32 1.32 0 00.24.88 1.06 1.06 0 00.82.26zm9.29.92h-1.15v-3h-2.55v3H22v-7.08h1.17v3.07h2.55v-3.07h1.15zm6.32-6.1h-1.93v6.1h-1.15v-6.1h-1.9v-1h5zm4.79 6.1a2.51 2.51 0 01-.15-.77 1.84 1.84 0 01-1.57.9 1.87 1.87 0 01-2-2.06 2.13 2.13 0 01.73-1.71 3 3 0 012-.65h.85v-.75a1.21 1.21 0 00-.28-.91 1.2 1.2 0 00-.86-.26 1.17 1.17 0 00-.85.31 1 1 0 00-.32.78h-1.22a1.81 1.81 0 01.32-1 2.24 2.24 0 01.86-.78 2.57 2.57 0 011.21-.28 2.28 2.28 0 011.65.54 2.1 2.1 0 01.58 1.57V114a4.31 4.31 0 00.23 1.42v.1zm-1.54-.92a1.52 1.52 0 00.81-.24 1.38 1.38 0 00.56-.59v-1.68h-.65a2.16 2.16 0 00-1.3.37 1.16 1.16 0 00-.48 1 1.32 1.32 0 00.24.88 1 1 0 00.79.26zm4.39-6.16H42v6.09h2.55v-6.09h1.16v6.09h.74l-.12 3.09h-1v-2.1h-4.48zm10.75 0h1.15v7.08H51.6v-5.16l-2.6 5.16h-1.12v-7.08H49v5.17zm7.63 0v7.08h-1.16v-2.75H56.7l-1.43 2.75H54l1.53-3a1.82 1.82 0 01-.88-.76 2.38 2.38 0 01-.3-1.2A2.06 2.06 0 0155 109a2.38 2.38 0 011.69-.59zm-3.69 2.17a1.3 1.3 0 00.28.85 1 1 0 00.76.31h1.49v-2.35h-1.38a1.07 1.07 0 00-.83.33 1.2 1.2 0 00-.32.86zm10.73-1.3a1.14 1.14 0 00-.88.4 1.41 1.41 0 00-.37 1h-1.1a2.25 2.25 0 01.33-1.16 2.4 2.4 0 01.87-.89 2.24 2.24 0 013 .66 4.26 4.26 0 01.73 2.62v.2a4.78 4.78 0 01-.33 1.81 2.93 2.93 0 01-.92 1.27 2.23 2.23 0 01-1.37.45 2.19 2.19 0 01-1.67-.72 2.65 2.65 0 01-.67-1.84H65a1.69 1.69 0 00.37 1.13 1.08 1.08 0 00.87.45 1.17 1.17 0 001-.6 3.61 3.61 0 00.45-1.66h-2.03v-1h2a3.38 3.38 0 00-.46-1.55 1.12 1.12 0 00-.93-.57zm9.09-.87v7.08H74.2v-6.08h-1.86l-.11 2.4a7.07 7.07 0 01-.54 2.83 1.53 1.53 0 01-1.43.85h-.38v-1.06h.29a.85.85 0 00.69-.65 9.77 9.77 0 00.26-2.31l.11-3zm5.64 0h1.15v7.08H81v-5.16l-2.57 5.16h-1.12v-7.08h1.15v5.17zm7.5.98h-1.93v6.1h-1.15v-6.1h-1.9v-1h5zm6.19 6.1h-1.15v-3H91v3h-1.18v-7.08H91v3.07h2.55v-3.07h1.15zm3.1-4.64h1.46a2.2 2.2 0 011.62.62 2.3 2.3 0 01.6 1.68 2.35 2.35 0 01-.61 1.7 2.13 2.13 0 01-1.61.64h-2.61v-7.08h1.15zm0 1v2.66h1.44a1 1 0 00.8-.34 1.48 1.48 0 00.28-1 1.56 1.56 0 00-.28-1 .91.91 0 00-.77-.38zm5.84 3.65h-1.16v-7.08h1.16zm4.06-4.53l1.21-2.59h1.35l-1.93 3.5 2 3.58H109l-1.25-2.65-1.25 2.65h-1.34l2-3.58-1.92-3.5h1.33zm11.5 4.52H118V113a4.45 4.45 0 01-1.3.19 2.14 2.14 0 01-1.69-.68 2.81 2.81 0 01-.63-1.91v-2.14h1.16v2.17c0 1 .41 1.56 1.16 1.56a4.24 4.24 0 001.3-.2v-3.53h1.16zm5.48 0a2.51 2.51 0 01-.15-.77 1.85 1.85 0 01-1.57.9 1.88 1.88 0 01-2-2.06 2.14 2.14 0 01.74-1.71 3 3 0 012-.65h.85v-.75a1.25 1.25 0 00-.28-.91 1.21 1.21 0 00-.86-.26 1.17 1.17 0 00-.85.31 1 1 0 00-.33.78H121a1.89 1.89 0 01.32-1 2.26 2.26 0 01.87-.78 2.54 2.54 0 011.21-.28 2.31 2.31 0 011.65.54 2.1 2.1 0 01.58 1.57V114a4.32 4.32 0 00.22 1.42v.1zm-1.55-.92a1.47 1.47 0 00.81-.24 1.4 1.4 0 00.57-.59v-1.68h-.66a2.18 2.18 0 00-1.3.37 1.16 1.16 0 00-.48 1 1.32 1.32 0 00.24.88 1.08 1.08 0 00.82.26zm6.88 1.05a2.55 2.55 0 01-2-.79 3.39 3.39 0 01-.72-2.31v-.86a4 4 0 01.69-2.48 2.28 2.28 0 011.92-.9 2.2 2.2 0 011.86.79 4.09 4.09 0 01.63 2.47v.76h-4v.16a2.58 2.58 0 00.43 1.66 1.5 1.5 0 001.23.51 2 2 0 00.9-.19 2.26 2.26 0 00.73-.61l.6.73a2.62 2.62 0 01-2.27 1.06zm-2.26-9.1a.71.71 0 01.18-.5.69.69 0 01.53-.2.7.7 0 01.54.2.71.71 0 01.18.5.69.69 0 01-.18.49.7.7 0 01-.54.2.65.65 0 01-.71-.69zm2.13 2.76a1.2 1.2 0 00-1.06.49 3 3 0 00-.4 1.53h2.79v-.15a2.7 2.7 0 00-.36-1.44 1.11 1.11 0 00-1-.43zm.68-2.75a.73.73 0 01.18-.5.7.7 0 01.54-.2.67.67 0 01.72.7.67.67 0 01-.72.69.67.67 0 01-.54-.2.69.69 0 01-.21-.49zm3.27 8.96v-7.08h2.38a3 3 0 011.85.5 1.71 1.71 0 01.65 1.44 1.6 1.6 0 01-.26.89 1.65 1.65 0 01-.74.6 1.59 1.59 0 01.87.58 1.72 1.72 0 01.33 1.06 1.85 1.85 0 01-.61 1.5 2.64 2.64 0 01-1.73.51zm1.15-4.07h1.21c.91 0 1.36-.34 1.36-1s-.43-1-1.28-1H135zm0 1v2.14h1.6q1.17 0 1.17-1.08c0-.7-.39-1.06-1.18-1.06zm8.78-6.45H145v8.5h3.72V106h1.2v8.48h.86l-.11 3.35h-1.08v-2.3h-5.8zm10.88 9.65a2.57 2.57 0 01-2-.79 3.39 3.39 0 01-.72-2.31v-.86a4 4 0 01.69-2.48 2.3 2.3 0 011.93-.9 2.2 2.2 0 011.86.79 4.09 4.09 0 01.63 2.47v.76h-4v.16a2.64 2.64 0 00.43 1.66 1.54 1.54 0 001.24.51 2 2 0 00.9-.19 2.26 2.26 0 00.73-.61l.6.73a2.62 2.62 0 01-2.29 1.06zm-.13-6.34a1.21 1.21 0 00-1.07.49 2.93 2.93 0 00-.39 1.53h2.79v-.15a2.7 2.7 0 00-.36-1.44 1.13 1.13 0 00-.97-.43zm7.7-.87h1.15v7.08h-1.15v-5.16l-2.56 5.16h-1.16v-7.08h1.16v5.17zm.68-2.58a1.61 1.61 0 01-.54 1.27 2.29 2.29 0 01-2.83 0 1.6 1.6 0 01-.55-1.27h1a1 1 0 00.25.71.93.93 0 00.73.26 1 1 0 00.71-.25 1 1 0 00.26-.72zm7.31 2.58v7.08H169v-6.08h-1.86l-.11 2.4a7.07 7.07 0 01-.54 2.83 1.53 1.53 0 01-1.43.85h-.38v-1.06h.29a.86.86 0 00.69-.65 9.77 9.77 0 00.26-2.31l.11-3zm1.6 3.21a3.69 3.69 0 01.75-2.44 2.65 2.65 0 014 0 3.66 3.66 0 01.77 2.39v.74a3.69 3.69 0 01-.75 2.44 2.48 2.48 0 01-2 .89 2.45 2.45 0 01-2-.87 3.58 3.58 0 01-.77-2.35zm1.16.67a3.06 3.06 0 00.42 1.72 1.34 1.34 0 001.16.62c1 0 1.55-.73 1.58-2.21v-.8a3 3 0 00-.43-1.71 1.35 1.35 0 00-1.16-.63 1.33 1.33 0 00-1.15.63 3 3 0 00-.42 1.71zm10.78 3.2h-1.15v-3H180v3h-1.17v-7.08H180v3.07h2.55v-3.07h1.15zm5.49 0a2.51 2.51 0 01-.15-.77 1.84 1.84 0 01-1.57.9 1.87 1.87 0 01-2-2.06 2.13 2.13 0 01.73-1.71 3 3 0 012-.65h.85v-.75a1.21 1.21 0 00-.28-.91 1.2 1.2 0 00-.86-.26 1.17 1.17 0 00-.85.31 1 1 0 00-.33.78h-1.15a1.81 1.81 0 01.32-1 2.24 2.24 0 01.86-.78 2.57 2.57 0 011.21-.28 2.28 2.28 0 011.65.54 2.1 2.1 0 01.58 1.57V114a4.6 4.6 0 00.22 1.42v.1zm-1.54-.92a1.52 1.52 0 00.81-.24 1.44 1.44 0 00.56-.59v-1.68h-.65a2.21 2.21 0 00-1.31.37 1.15 1.15 0 00-.47 1 1.32 1.32 0 00.24.88 1 1 0 00.82.26z" fill="#2c1f77"/></svg>