<svg xmlns="http://www.w3.org/2000/svg" data-name="Capa 1" width="100" height="100"><path d="M60.47 24.296a2.375 2.375 0 00-1.787 4.388 23.023 23.026 0 11-8.999-1.688 2.375 2.375 0 10-.063-4.738 27.723 27.726 0 1010.85 2.038z" fill="#ffe1c6"/><path d="M99.08 28.759l-2.5-2.038a21.348 21.351 0 00-1.85-1.25 1.487 1.488 0 00-1.575 2.5 15.361 15.363 0 011.562 1.113l2.325 1.85-.387 2.825a16.724 16.726 0 01-6.25 11.25 40.384 40.39 0 00-7.974-19.613 16.661 16.663 0 015.225.238 1.487 1.488 0 10.6-2.913 19.998 20.001 0 00-8.037 0 33.694 33.694 0 00-2.5-2.5 19.81 19.814 0 00-3.85-16.464l-2.025-2.5A2.5 2.5 0 0069.632.232l-3.237.375a19.81 19.814 0 00-14.286 8.75h-3.587A19.81 19.814 0 0034.135.396L30.898.007a2.5 2.5 0 00-2.137.925l-2.038 2.5a19.886 19.889 0 00-3.887 16.351 33.694 33.694 0 00-2.5 2.5 19.773 19.776 0 00-7.499-.2 1.487 1.488 0 00-1.25 1.713 1.5 1.5 0 001.713 1.25 16.736 16.738 0 014.7-.037 40.509 40.515 0 00-8.275 19.463 16.874 16.876 0 01-6.162-11.188l-.325-2.95 2.325-1.85a16.249 16.25 0 012.012-1.375 1.49 1.49 0 00-1.5-2.575 20.698 20.701 0 00-2.312 1.612l-2.5 2.025a2.5 2.5 0 00-1.025 2.213l.375 3.238a19.81 19.814 0 008.75 14.288v3.587A19.81 19.814 0 00.4 65.886l-.388 3.237a2.5 2.5 0 00.913 2.2l2.5 2.038a19.91 19.914 0 0012.348 4.3 18.836 18.838 0 004-.425 29.488 29.488 0 002.5 2.5 19.81 19.814 0 003.875 16.526l2.024 2.5a2.5 2.5 0 001.925.938h.288l3.237-.375a19.81 19.814 0 0014.286-8.75h3.587a19.786 19.789 0 0014.387 9.05l3.237.375h.275a2.5 2.5 0 001.925-.925l2.037-2.5a19.836 19.839 0 003.875-16.351 29.488 29.488 0 002.5-2.5 19.36 19.364 0 004.224.462 19.786 19.789 0 0012.299-4.312l2.5-2.025a2.5 2.5 0 00.925-2.213l-.375-3.238a19.81 19.814 0 00-8.75-14.288v-3.588a19.81 19.814 0 009.062-14.388l.375-3.238a2.5 2.5 0 00-.912-2.137zM66.732 3.557l2.95-.325 1.85 2.326a16.799 16.8 0 013.475 12.425A40.546 40.552 0 0055.546 9.72a16.874 16.876 0 0111.186-6.163zM28.998 5.345l1.85-2.325 2.912.337a16.724 16.726 0 0111.25 6.25 40.484 40.49 0 00-19.624 7.976 16.886 16.888 0 013.612-12.238zM5.35 71.023l-2.324-1.85.337-2.912a16.774 16.776 0 016.25-11.25 40.384 40.39 0 007.974 19.625A16.824 16.826 0 015.35 71.023zm27.935 25.44l-2.95.324-1.85-2.325a16.799 16.8 0 01-3.474-12.425 40.396 40.402 0 0019.498 8.262 16.874 16.876 0 01-11.224 6.163zm37.735-1.788L69.17 97l-2.913-.338a16.724 16.726 0 01-11.249-6.25 40.384 40.39 0 0019.611-7.975 16.824 16.826 0 01-3.6 12.238zm-16.761-7.163h-6.837c-.575 0-1.163-.1-1.738-.163h-.162a37.684 37.69 0 01-33.01-33.139v-.637a2.637 2.638 0 000-.313v-1.212a2.825 2.825 0 000-.326v-2.575a2.825 2.825 0 010-.325v-1.387c0-.588.088-1.175.163-1.75v-.163c0-.062 0-.45.087-.675a37.71 37.714 0 0132.985-32.34h6.849l1.025.088h.138l.6.075h.175l.662.088a37.71 37.714 0 0132.31 33.04v.65a3.075 3.075 0 000 .324v1.2a2.612 2.613 0 000 .313v2.587a2.825 2.825 0 010 .325v1.388c0 .588-.088 1.175-.163 1.75v.163c0 .062 0 .45-.087.675a37.71 37.714 0 01-32.997 32.339zm42.196-20.776l.325 2.95-2.325 1.85a16.799 16.8 0 01-12.424 3.475 40.546 40.552 0 008.262-19.513 16.874 16.876 0 016.162 11.238z" fill="#d3925e"/><path d="M45.797 53.098A75.993 76.004 0 0163.37 37.697c.075.137.125.262.175.375.163.375.313.762.488 1.125a.237.238 0 010 .325 64.044 64.053 0 00-5.562 5.938 79.843 79.854 0 00-7.8 11.138 43.184 43.19 0 00-2.8 5.588.6.6 0 01-.062.137L35.948 50.135l3.024-2.5z" fill="#d3925e"/></svg>