<svg version="1.1" id="Слой_1" xmlns="http://www.w3.org/2000/svg" x="0" y="0" viewBox="0 0 80 80" xml:space="preserve"><style>.st0{fill:#ffe1c6}</style><g id="Paticipatation-2"><path class="st0" d="M59.8 51.3L57 48.5c-.1-.1-.3-.2-.5-.2s-.3.1-.5.2l-.5.5-.3-.3-.8-3.7c0-.1-.1-.2-.2-.3l-6.9-7v-8.3c0-.1 0-.2-.1-.3l-1.9-3.2v-.5h.7c.4 0 .7-.3.7-.7v-4c0-.4-.3-.7-.7-.7H35.4c-.4 0-.7.3-.7.7v4c0 .4.3.7.7.7v.4l-2.5 2.5c-.1.1-.2.3-.2.5v8c0 .3.1.5.2.8l-7.1 7.2c-.1.1-.1.2-.2.3l-.9 3.6-.3.3-.5-.5c-.3-.3-.7-.3-.9 0l-2.8 2.8c-.3.3-.3.7 0 .9l7.5 7.6c.3.3.7.3.9 0l2.8-2.8c.3-.3.3-.7 0-.9l.3-.3h3.5c.2 0 .3-.1.5-.2l4.4-4.4 4.4 4.4c.1.1.3.2.5.2h3.5l.3.3c-.3.3-.3.7 0 .9l2.8 2.8c.3.3.7.3.9 0l7.5-7.6c.1-.2.1-.6-.2-.9zM36 21.3h9.3V24H36v-2.7zm.5 5.2c.1-.1.2-.3.2-.5v-.7H44v.7c0 .1 0 .2.1.3l1.9 3.2v7.1c-.4-.1-.9-.1-1.3 0v-1.3h-1.3v2.1l-.4-.3c-.3-.3-.6-.5-1-.5v-1.2h-1.3v1.4c-.4.2-.7.5-.9.9l-.1-.1c-.1-.1-.2-.2-.4-.3v-1.9H38V37c-.4.1-.8.3-1.1.6-.1.1-.2.2-.3.4 0-.1-.1-.2-.1-.3.2-.3.2-.6.2-.9v-4h-1.3v3.9c-.4-.2-.9-.2-1.3 0V29l2.4-2.5zm-8.4 31.9l-6.5-6.6 1.9-1.9 6.5 6.6-1.9 1.9zm6.8-4h-3.5c-.2 0-.3.1-.5.2l-.5.5-5.1-5.2.5-.5c.1-.1.1-.2.2-.3l.9-3.6 7.3-7.4c.3-.3.7-.3.9 0 .2.3.2.7 0 .9l-3.3 3.3.9.9 3.3-3.3c.1-.1.2-.3.3-.4.1.3.3.6.5.9l.1.1c-.2.1-.4.2-.6.4-.3.3-.5.7-.6 1.2l-.3.3-1.8 1.8.9.9 1.6-1.6c0 .1.1.1.1.2l.8.8-1.6 1.6.9.9 1.6-1.6.1.1.1.1.8.8-3.4 3.5.9.9 1.7-1.7c.1.3.3.6.5.8l.3.3-4 4.2zm10.2 0l-5.4-5.5c-.3-.3-.3-.7 0-.9.1-.1.2-.1.3-.2h.2c.2 0 .3.1.5.2l2.8 2.8.9-.9-7-7.1c-.1-.1-.2-.3-.2-.4 0-.4.3-.7.6-.7h.1c.2 0 .3.1.4.2l5.1 5.2.9-.9-6.5-6.6c-.3-.3-.3-.7 0-.9.1-.1.3-.2.5-.2h.2c.1 0 .2.1.3.2l6.5 6.6.9-.9-5.1-5.4c-.1-.1-.2-.3-.2-.4 0-.2.1-.4.2-.5.1-.1.2-.2.4-.2h.1c.2 0 .3.1.5.2l5.1 5.2.9-.9-3.3-3.4c-.3-.3-.3-.7 0-.9.3-.3.7-.3.9 0l7.4 7.4.9 3.6c0 .1.1.2.2.3l.5.5-5.1 5.2-.5-.5c-.1-.1-.3-.2-.5-.2h-3.5zm6.8 4L50 56.5l6.5-6.6 1.9 1.9-6.5 6.6z"/><path class="st0" d="M31.8 30.4l-.9-1c-3.6 3.2-5.4 8-4.7 12.8l1.3-.2c-.1-.6-.1-1.3-.1-1.9 0-3.8 1.6-7.3 4.4-9.7zm8.9 23.7l-.1-1.3h-1.3l-.1 1.3h1.5zm13.1-12.6c0-.5.1-.9.1-1.4 0-4.1-1.8-8-4.9-10.7l-.9 1c2.8 2.4 4.4 5.9 4.4 9.7 0 .4 0 .9-.1 1.3l1.4.1z"/><path class="st0" d="M25.1 43.3c-1.5-7 2.1-14.2 8.5-17.2l-.6-1.2c-7 3.3-10.9 11-9.3 18.7l1.4-.3zm12.4 11.9l-.2 1.3c1.8.3 3.7.3 5.5 0l-.2-1.3c-1.7.3-3.5.3-5.1 0zm17.7-15.1c0 1.1-.1 2.2-.3 3.2l1.3.3c1.5-7.1-1.7-14.3-7.9-18l-.7 1.2c4.7 2.7 7.6 7.8 7.6 13.3z"/></g><path d="M79.4 22.9l-2-1.6c-.5-.4-1-.7-1.5-1-.6-.3-1.3-.2-1.6.4-.3.6-.2 1.3.4 1.6.4.3.9.6 1.3.9l1.9 1.5-.5 2.3c-.4 3.6-2.2 6.8-5 9-.7-5.9-3-11.2-6.4-15.7 1.4-.2 2.8-.1 4.2.2.6.1 1.3-.3 1.4-.9s-.3-1.3-.9-1.4c-2.1-.4-4.3-.4-6.4 0-.6-.7-1.3-1.4-2-2 1-4.6-.1-9.5-3.1-13.2l-1.6-2c-.4-.5-1.1-.8-1.8-.7l-2.6.3c-4.7.5-8.9 3.1-11.4 7h-2.9C36.4 3.6 32.1 1 27.4.4L24.7 0c-.7-.1-1.3.2-1.8.7l-1.6 2c-2.9 3.7-4.1 8.5-3.1 13.1-.7.6-1.4 1.3-2 2-2-.4-4-.5-6-.2-.6.1-1.1.7-1 1.4.1.6.7 1.1 1.4 1 1.3-.2 2.5-.2 3.8-.1-3.5 4.4-5.8 9.8-6.6 15.6-2.7-2.2-4.5-5.4-4.9-8.9l-.3-2.4 1.9-1.5c.5-.4 1-.8 1.6-1.1s.8-1.1.4-1.6c-.3-.6-1.1-.8-1.6-.4-.7.4-1.3.8-1.9 1.3l-2 1.6c-.5.4-.8 1.1-.7 1.8l.3 2.6c.5 4.7 3.1 8.9 7 11.4v2.9C3.6 43.7 1 48 .4 52.7L0 55.4c-.1.7.2 1.3.7 1.8l2 1.6c2.8 2.2 6.3 3.4 9.9 3.4 1.1 0 2.1-.1 3.2-.3.6.7 1.3 1.4 2 2-1 4.6.1 9.5 3.1 13.2l1.6 2c.4.5.9.7 1.5.7h.2l2.6-.3c4.7-.5 8.9-3.1 11.4-7h2.9c2.5 4 6.8 6.6 11.5 7.2l2.6.3h.2c.6 0 1.2-.3 1.5-.7l1.6-2c2.9-3.7 4.1-8.5 3.1-13.1.7-.6 1.4-1.3 2-2 1.1.2 2.3.4 3.4.4 3.5 0 7-1.2 9.8-3.4l2-1.6c.5-.4.8-1.1.7-1.8l-.3-2.6c-.5-4.7-3.1-8.9-7-11.4v-2.9c4-2.5 6.6-6.8 7.2-11.5l.3-2.6c.5-.8.2-1.4-.3-1.9zM53.5 2.8l2.4-.3 1.5 1.9c2.2 2.8 3.2 6.4 2.8 9.9-4.4-3.5-9.8-5.8-15.6-6.6C46.7 5 50 3.2 53.5 2.8zM23.2 4.3l1.5-1.9 2.3.3c3.6.4 6.8 2.2 9 5-5.9.7-11.2 3-15.7 6.4-.3-3.5.7-7.1 2.9-9.8zM4.3 56.9l-1.9-1.5.3-2.3c.4-3.6 2.2-6.8 5-9 .7 5.9 3 11.2 6.4 15.7-3.5.3-7.1-.7-9.8-2.9zm22.4 20.4l-2.4.3-1.5-1.9c-2.2-2.8-3.2-6.4-2.8-9.9 4.4 3.5 9.8 5.8 15.6 6.6-2.1 2.7-5.4 4.5-8.9 4.9zm30.2-1.5l-1.5 1.9-2.3-.3c-3.6-.4-6.8-2.2-9-5 5.8-.7 11.2-3 15.7-6.4.3 3.5-.7 7.1-2.9 9.8zm-13.4-5.7h-7C22.6 68.4 11.6 57.4 10 43.5V38c0-.5.1-.9.1-1.4v-.1c0-.2 0-.4.1-.5C12 22.3 22.9 11.6 36.7 10h5.4c.3 0 .5 0 .8.1h.1c.2 0 .3 0 .5.1h.1c.2 0 .4 0 .5.1 13.7 1.7 24.4 12.6 26 26.3v5.5c0 .5-.1.9-.1 1.4v.1c0 .2 0 .4-.1.5-1.8 13.7-12.7 24.4-26.4 26zm33.8-16.6l.3 2.4-1.9 1.5c-2.8 2.2-6.4 3.2-9.9 2.8 3.5-4.4 5.8-9.8 6.6-15.6 2.7 2.1 4.5 5.4 4.9 8.9z" fill="#d3925e"/></svg>