<svg xmlns="http://www.w3.org/2000/svg" data-name="Слой 1" viewBox="0 0 95.14 60.11"><path d="M48.211 29.653a.93.931 0 01-.76 1.002c-.21 0-.51-.4-.51-.691a.69.69 0 01.8-.671c.18.05.36.28.47.36z"/><path d="M94.242 31.556a7.71 7.72 0 00-2.74-2.523 15.9 15.92 0 00-3.87-1.602c-1.63-.43-3.3-.731-5-1.001a31.64 31.678 0 00-3.22-.33c-.84-.05-1.68 0-2.51 0l-3.86.08c-.17 0-.35.07-.52.07h-2.27c-.75 0-1.2.11-1.8.14h-1.31a2.74 2.743 0 01.6-.531 6.36 6.368 0 001.81-1.272c.24-.21.41-.81.24-1a.72.72 0 00-.91-.181 5.79 5.797 0 00-1.81 1.412 2 2.002 0 01-.7.49 12.7 12.715 0 01-1.51.34 6.31 6.318 0 01-2.63.19.42.42 0 00-.36.141 5.91 5.917 0 00-.27.74l.11.141c-2 .12-3.93.28-5.9.21l-.15-.22a3.11 3.114 0 00.41-.2l2.81-1.822c.19-.13.43-.19.62-.31a.73.73 0 00.2-1.002c-.23-.31-.43-.29-.83 0a7.45 7.459 0 01-1 .6c-1.37.692-2.74 1.392-4.14 2.003a29.53 29.566 0 01-3.001 1.112c-.28.09-.64.29-.95 0a5 5.006 0 011.95-1.843c.85-.58 1.68-1.181 2.52-1.772 1.23-.85 2.44-1.752 3.72-2.543a14 14.017 0 003.27-2.463 5.55 5.557 0 00.81-1.171c.09-.16 0-.47-.13-.661-.13-.19-.33-.06-.5 0a1.33 1.332 0 00-.5.26c-.34.27-.65.581-1 .871-.83.721-1.65 1.452-2.49 2.153-.68.57-1.37 1.151-2.1 1.652-1.37.931-2.78 1.812-4.17 2.733-.52.34-1 .801-1.52 1.092a9.09 9.101 0 01-1.76.66c-.88.28-1.78.53-2.68.791v-.11l1.33-.921c.68-.5 1.35-1.001 2-1.522a.84.841 0 00.27-1.131c-.06-.08-.2-.17-.26-.15a5.2 5.206 0 00-.95.37c-.86.45-1.69 1.001-2.57 1.382a97.05 97.05 0 01-4 1.802c-1.07.45-2.17.861-3.27 1.251a6.92 6.928 0 01-1.12.21l-.07-.16a2.24 2.243 0 01.5-.43c.63-.32 1.29-.59 1.92-.921.63-.33 1-.58 1.56-.891.56-.31 1.27-.841 1.92-1.232.43-.26.53-.48.38-.93a3.44 3.444 0 00-.84 0 11.26 11.274 0 00-2.07.63 12.63 12.645 0 00-1.92 1.171 9.31 9.321 0 00-1.17 1.002 3.82 3.825 0 01-2.06.89c-1.31.301-2.64.531-4 .762a4.1 4.105 0 01-2.12-.1c-.38-.15-.44-.29-.17-.581.52-.52 1.05-1.001 1.59-1.522.54-.52 1.15-.941 1.7-1.442.55-.5 1.37-1.321 2.06-2.002L35 21.253c.34-.34.65-.71 1-1 .9-.802 1.83-1.563 2.74-2.364.54-.48 1-1 1.57-1.491a2 2.002 0 011.53-.661 6.61 6.618 0 001-.08l2.2-.25 2.52-.311 2-.26c1-.12 2-.21 3-.36 1.21-.181 2.41-.421 3.61-.642 1.71-.31 3.43-.61 5.14-1 1-.221 2.09-.491 3.12-.792 1.66-.48 3.31-1 4.94-1.542a16.29 16.31 0 004-1.942 4.85 4.856 0 002.34-3.174 3.69 3.694 0 00-.5-2.813A5.93 5.937 0 0072.46.568a8.82 8.83 0 00-3.62-.53 22.07 22.097 0 00-3 .2 21.42 21.446 0 00-5.51 1.742c-1.61.761-3.19 1.582-4.78 2.383a29.87 29.906 0 00-4 2.423c-.81.58-1.67 1.091-2.48 1.672-.81.58-1.66 1.191-2.47 1.812a228.6 228.6 0 00-3.43 2.743 19.79 19.814 0 01-2.16 1.763 4.62 4.626 0 01-1.84.39c-.85.1-1.7.11-2.55.19-1.5.12-3 .27-4.51.41-1.24.11-2.48.201-3.72.341-1.24.14-2.61.28-3.91.5-1.3.221-2.52.521-3.77.842a2.51 2.513 0 00-.94.56c-.1.08-.08.38 0 .531.08.15.31.15.44.11a9.16 9.171 0 011-.42c1.37-.31 2.74-.611 4.12-.831 1.38-.22 2.5-.29 3.76-.43l2.57-.261 3.93-.4 1.62-.15 2.37-.201.14.16c-.28.21-.57.41-.84.64-1 .912-2 1.823-3 2.744-1 .921-2.11 2.003-3.17 3.004a331.81 331.81 0 01-3.92 3.574.53.53 0 01-.5 0c-.34-.3-.56-.11-.7.15a5.75 5.757 0 00-.35.931.79.791 0 01-.15.35c-.75.652-1.51 1.302-2.28 1.933-.77.631-1.6 1.322-2.44 1.933-.84.61-1.95 1.291-2.91 2.002a.92.921 0 01-1 .09c-.62-.28-1.25-.55-1.88-.79-1-.391-2.11-.732-3.16-1.122a17.79 17.811 0 00-5.29-1.001 10 10.012 0 00-4.26.75A5.52 5.527 0 00.69 33.89c-.23.46-.41.94-.61 1.411v1.162c0 .08.09.17.12.25a3.09 3.094 0 001 1.542 4.72 4.726 0 002.67.91 17.52 17.541 0 002.29-.07 22.49 22.517 0 002.84-.36 30.38 30.417 0 004.87-1.381A14.83 14.848 0 0017 35.79c.61-.43 1.25-.831 1.88-1.232a.48.48 0 01.37 0c.8.3 1.6.601 2.4.921.8.32 1.3.561 1.94.851l3.07 1.412c.43.2.88.36 1.32.54l3.16 1.312a4.14 4.145 0 00.65.14c-.46.321-.82.551-1.15.812-.63.49-1.24 1-1.85 1.501-1 .791-2 1.532-2.94 2.393-.94.861-1.49 1.672-2.23 2.513l-1.06 1.232a8.62 8.63 0 00-.73.87A14.51 14.527 0 0021 50.5c-.48 1-1 1.932-1.39 2.913a10.89 10.903 0 00-.85 3.604 5.44 5.447 0 00.56 3.004h.16c-.06-.56-.15-1.121-.17-1.672a6.5 6.508 0 01.1-1.532 17.19 17.21 0 01.75-2.663 26 26.031 0 011.63-3.464 20.81 20.835 0 011.78-2.333 23.21 23.238 0 014.07-4.375c1.61-1.232 3.2-2.473 4.79-3.735a.49.49 0 01.56 0c1.24.42 2.49.871 3.74 1.282 1.06.36 2.12.71 3.19 1.001 1.49.41 3 .79 4.51 1.151.94.22 1.88.44 2.841.591 1.7.26 3.41.49 5.12.67 1.48.161 3 .301 4.44.321 1.67 0 3.34-.08 5-.15a14.11 14.127 0 001.57-.22c.67-.11 1.34-.22 2-.36a14.9 14.918 0 002.23-.551 28.89 28.925 0 002.66-1.352 7.57 7.58 0 002.48-2.233 4.37 4.375 0 00.77-3.003 4 4.005 0 00-1.64-3.074 20.69 20.715 0 00-2.32-1.352 16 16.02 0 00-3.76-1.211 18.71 18.733 0 00-2.14-.34c-.64-.09-1.29-.21-2-.24h-2.84c-1.36.06-2.72.1-4.07.26-1.7.21-3.4.48-5.08.84-1.68.361-3.1.802-4.65 1.242-.79.23-1.58.5-2.36.781-.78.28-1.57.62-2.34 1.001-.77.38-1.49.711-2.24 1.072-.75.36-1.76.81-2.62 1.261-.86.45-1.76 1.001-2.65 1.452a1 1.001 0 01-.6.09 6.69 6.698 0 01-1-.35c-1.42-.551-2.84-1.092-4.24-1.663-1-.41-2-.86-3-1.281-.34-.14-.71-.22-1-.37-.57-.25-1.13-.531-1.69-.801l-1.46-.741 1.58-1.112c.81-.58 1.63-1.151 2.44-1.752.35-.26.66-.58 1-.85.71-.541 1.46-1.002 2.14-1.593.3-.25.48-.26.76 0a2.24 2.243 0 001.64.53c1.09-.08 2.18-.2 3.26-.38 1.08-.18 1.85-.44 2.83-.67v.45c0 .47.27.801.67.771a7.14 7.149 0 001.6-.27c.75-.23 1.47-.57 2.21-.851.26-.09.53-.15.8-.22.1.8.18.9.91.84a7.62 7.63 0 001-.23 31.46 31.498 0 004.79-1.231c.4-.15.82-.24 1.31-.38 0 .25-.07.42-.09.59-.07.49.2 1.101.81 1.001a5.79 5.797 0 001.19-.17c.9-.31 1.79-.68 2.68-1.001.33-.14.65-.31 1-.47a4.62 4.626 0 000 .81.52.52 0 00.28.37 3 3.004 0 00.85.07c1.85-.07 3.71-.16 5.56-.25.67 0 1.34-.11 2-.17l2.94-.25c.21 0 .44.09.64.05.35-.05.67-.21 1-.26.64-.09 1.28-.16 1.92-.2.64-.04 1.28 0 1.92 0 .88 0 1.76-.16 2.63-.15 2.08 0 4.16.1 6.24.16a11.51 11.524 0 011.18.13c.77.11 1.54.23 2.3.37a27.74 27.773 0 013 .62 23.64 23.668 0 013 1.212 17.41 17.431 0 012 1.172 5.22 5.226 0 012.06 2.573 3 3.004 0 010 2.353 8.7 8.71 0 01-.89 1.391 5.12 5.126 0 01-2.29 1.863 9.74 9.752 0 01-2.81.65 15.29 15.308 0 01-2.9-.34c-.53-.07-.52-.11-.21-.57a2.5 2.503 0 00-1.64-.11c-.35.06-.45.31-.51.6a.59.59 0 00.4.69 11.2 11.213 0 003.7.762 8.19 8.2 0 004.84-1.112 10.51 10.523 0 001.57-1.251 8.42 8.43 0 001.1-1.422 4.85 4.856 0 00.72-1.462 4.77 4.776 0 00-.73-3.714zM41.41 24.337l.12.24-3.32 1.652-.13-.27zm2-10.483c.88-.76 1.73-1.561 2.64-2.282.75-.601 1.58-1.102 2.38-1.652 1.44-1.001 2.85-2.003 4.32-3.004 1.02-.66 2.14-1.291 3.25-1.882 1.45-.761 2.92-1.462 4.4-2.163a21.48 21.506 0 015.4-1.762 16 16.02 0 013.33-.18 9.6 9.612 0 012.71.49 4.75 4.756 0 012.91 2.173 2.46 2.463 0 01-.07 2.343 5.5 5.507 0 01-2.61 2.403 35.55 35.593 0 01-3.26 1.502 22.72 22.747 0 01-2.88 1c-1.68.441-3.38.802-5.07 1.202-1.2.27-2.4.56-3.61.811-.59.12-1.19.18-1.78.26l-1.87.26c-1 .161-2 .341-3 .491-1.19.17-2.38.34-3.57.491-.67.08-1.36.11-2 .18-.64.07-1.44.19-2.15.28l-.42.05-.06-.14c.29-.3.6-.58.97-.87zM16.42 35.28A15.16 15.178 0 0114 36.442c-1.43.49-2.91.86-4.37 1.301a17.09 17.11 0 01-5.07.641 4.73 4.736 0 01-3.131-.931A2 2.002 0 01.75 35.6a4.71 4.716 0 012.85-3.414 10.62 10.633 0 013.23-.842 11.59 11.604 0 013.06.17 25.1 25.13 0 015.2 1.392c.46.17 1 .21 1.42.38.42.171 1.07.511 1.68.812-.62.42-1.19.87-1.77 1.181zm19.14 3.244c.5-.26 1-.52 1.53-.76C39 36.861 41 35.88 43 35.1c1.63-.64 3.34-1.061 5-1.572.85-.26 1.68-.56 2.55-.75 1.5-.321 3-.571 4.54-.832a32.76 32.8 0 016.49-.22 27.27 27.303 0 013.57.47 21.73 21.756 0 012.55.521 9 9.01 0 012.17.931 6.75 6.758 0 012 1.642 3.93 3.935 0 01.86 3.324 4.53 4.535 0 01-1.56 2.303 10.08 10.092 0 01-3 1.852 24 24.029 0 01-3 .851c-.85.21-1.7.36-2.56.49a16.85 16.87 0 01-1.88.181c-1.2 0-2.4.12-3.6.08a96.53 96.53 0 01-5.11-.33c-1-.09-1.93-.32-2.9-.47-.52-.08-1-.11-1.55-.191-.66-.1-1.32-.22-2-.35-.68-.13-1.52-.3-2.28-.491-.76-.19-1.57-.41-2.35-.64-1.14-.331-2.28-.652-3.42-1.002-1.14-.35-2.25-.72-3.37-1.091-.16 0-.31-.13-.54-.23zm6.06-10.623l-.13-.25 3.33-1.642.12.24z"/></svg>