<svg xmlns="http://www.w3.org/2000/svg" width="83" height="50"><path d="M80.9 0H2.1C.9 0 0 .9 0 2.1V50h80.9c1.1 0 2.1-.9 2.1-2.1V2.1C83 .9 82.1 0 80.9 0zM4.2 20.8h13.2c-.5 1.3-.8 2.7-.8 4.2 0 2.2.6 4.4 1.8 6.3H4.2zm74.6 25H4.2V35.4H22c.7.6 1.5 1.2 2.3 1.7 4.6 3 10.8 4.6 17.3 4.6s12.6-1.6 17.3-4.6c.8-.5 1.5-1.1 2.3-1.7H79v10.4zM47.7 33.3c5.7 0 10.4-4.7 10.4-10.4v-2.1c0-1.2-.9-2.1-2.1-2.1h-6.2c-2.2 0-4.4.7-6.2 2.1v-2.1c0-1.2-.9-2.1-2.1-2.1-1.2 0-2.1.9-2.1 2.1v2.1c-1.8-1.4-4-2.1-6.2-2.1H27c-1.1 0-2.1.9-2.1 2.1v2.1c0 5.8 4.6 10.4 10.4 10.4h4.1v4.1c-4.9-.3-9.5-1.6-13-3.9-3.7-2.4-5.7-5.4-5.7-8.6 0-3.2 2-6.2 5.7-8.6 4-2.5 9.3-3.9 15-3.9 5.7 0 11 1.4 15 3.9 3.7 2.4 5.7 5.4 5.7 8.6 0 3.2-2 6.2-5.7 8.6-3.5 2.2-8 3.6-13 3.9v-4.1zm-4.1-4.1c0-3.5 2.8-6.2 6.2-6.3H54c0 3.5-2.8 6.2-6.2 6.3zm-4.2 0h-4.1c-3.4 0-6.2-2.8-6.2-6.3h4.2c3.3 0 6.1 2.8 6.1 6.3zm39.4 2.1H64.6c1.1-1.9 1.8-4 1.8-6.3 0-1.4-.3-2.8-.8-4.2h13.2zm0-14.6H63.1c-1.3-1.5-2.7-2.7-4.4-3.7-4.6-3-10.7-4.7-17.2-4.7S28.9 10 24.2 12.9c-1.6 1-3.1 2.3-4.4 3.7H4.2V4.2h74.7v12.5z" fill="#36871d"/></svg>