<svg version="1.1" id="Capa_1" xmlns="http://www.w3.org/2000/svg" x="0" y="0" viewBox="0 0 34.2 50" xml:space="preserve"><style>.st0{fill:#36871d}</style><path class="st0" d="M31.3 0H2.9C1.3 0 0 1.3 0 2.9V47c0 1.7 1.3 3 2.9 3h28.3c1.6 0 2.9-1.3 2.9-2.9V3c.1-1.7-1.2-3-2.8-3zM2.9 2.9h28.3v6H2.9v-6zm0 8.9h28.3v26.4H2.9V11.8zm28.4 35.3H2.9v-6h28.3l.1 6z"/><path class="st0" d="M21 4.5h-7.8c-.8 0-1.5.7-1.5 1.5s.7 1.5 1.5 1.5H21c.8 0 1.5-.7 1.5-1.5s-.7-1.5-1.5-1.5z"/><circle class="st0" cx="17.1" cy="44.1" r="1.5"/></svg>