<svg version="1.1" id="icons" xmlns="http://www.w3.org/2000/svg" x="0" y="0" viewBox="0 0 35 35" xml:space="preserve"><style>.st0{fill:#2c1f77}</style><path class="st0" d="M1.7 19.8c-.3 0-.6-.3-.6-.6V17c0-.3.3-.6.6-.6s.6.3.6.6v2.2c0 .3-.3.6-.6.6zm7.9 0c-.3 0-.6-.3-.6-.6v-2.5c0-.3.3-.6.6-.6s.6.3.6.6v2.5c0 .3-.3.6-.6.6z"/><path class="st0" d="M9.6 17.2c-.3 0-.6-.2-.6-.5 0-2-1.6-3.7-3.7-3.7-2 0-3.7 1.6-3.7 3.7 0 .3-.3.6-.6.6s-.4-.3-.4-.6c0-2.6 2.2-4.8 4.8-4.8 2.6 0 4.8 2.2 4.8 4.8 0 .3-.3.5-.6.5z"/><path class="st0" d="M9.6 18c-.2 0-.3-.1-.4-.2-1.1-1.4-1.4-1.3-2.5-.9S4 18 1 17.5c-.3 0-.5-.3-.5-.6s.3-.5.6-.5c2.6.4 4-.1 5-.5 1.4-.5 2.3-.8 3.8 1.2.2.2.1.6-.1.8 0 .1-.1.1-.2.1z"/><path class="st0" d="M7.3 16.6c-.1 0-.2 0-.2-.1-.3-.1-.4-.5-.3-.8L8 13.5c.1-.3.5-.4.8-.3.2.2.3.5.2.8l-1.1 2.3c-.2.2-.4.3-.6.3zM.6 26.5c-.3 0-.6-.2-.6-.5 0-1.2 1-2.3 2.3-2.3.3 0 .6.3.6.6s-.3.6-.6.6c-.6 0-1.1.5-1.1 1.1-.1.3-.3.5-.6.5z"/><path class="st0" d="M4 24.8H2.3c-.3 0-.6-.3-.6-.6s.3-.6.6-.6H4c.3 0 .6.3.6.6s-.3.6-.6.6zm-3.4 4c-.3 0-.6-.3-.6-.6V26c0-.3.3-.6.6-.6s.6.3.6.6v2.3c-.1.2-.3.5-.6.5zm10.1-2.3c-.3 0-.6-.3-.6-.6 0-.6-.5-1.1-1.1-1.1-.3 0-.6-.3-.6-.6s.3-.6.6-.6c1.2 0 2.3 1 2.3 2.3 0 .4-.3.6-.6.6z"/><path class="st0" d="M9 24.8H7.3c-.3 0-.6-.3-.6-.6s.3-.6.6-.6H9c.3 0 .6.3.6.6s-.3.6-.6.6zm1.7 4c-.3 0-.6-.3-.6-.6V26c0-.3.3-.6.6-.6s.6.3.6.6v2.3c0 .2-.3.5-.6.5zm-6.7-4c-.3 0-.6-.3-.6-.6v-1.5c0-.3.3-.6.6-.6s.6.3.6.6v1.5c-.1.4-.3.6-.6.6z"/><path class="st0" d="M7.3 24.8c-.3 0-.6-.3-.6-.6v-1.5c0-.3.3-.6.6-.6s.6.3.6.6v1.5c0 .4-.2.6-.6.6z"/><path class="st0" d="M5.6 23.7c-2.5 0-4.5-2-4.5-4.5 0-.3.3-.6.6-.6s.6.3.6.6c0 1.9 1.5 3.4 3.4 3.4S9 21.1 9 19.2c0-.3.3-.6.6-.6s.6.3.6.6c0 2.5-2.1 4.5-4.6 4.5zm19.8-3.9c-.3 0-.6-.3-.6-.6v-4.5c0-.3.3-.6.6-.6s.6.3.6.6v4.5c0 .3-.3.6-.6.6zm7.9 0c-.3 0-.6-.3-.6-.6V19c0-.3.3-.6.6-.6s.6.3.6.6v.2c0 .3-.3.6-.6.6zm-9 6.7c-.3 0-.6-.3-.6-.6 0-1.2 1-2.3 2.3-2.3.3 0 .6.3.6.6s-.3.6-.6.6c-.6 0-1.1.5-1.1 1.1-.1.4-.3.6-.6.6z"/><path class="st0" d="M27.7 24.8H26c-.3 0-.6-.3-.6-.6s.3-.6.6-.6h1.7c.3 0 .6.3.6.6s-.3.6-.6.6zm-3.4 4c-.3 0-.6-.3-.6-.6V26c0-.3.3-.6.6-.6s.6.3.6.6v2.3c-.1.2-.3.5-.6.5zm10.1-2.3c-.3 0-.6-.3-.6-.6 0-.6-.5-1.1-1.1-1.1-.3 0-.6-.3-.6-.6s.3-.6.6-.6c1.2 0 2.3 1 2.3 2.3 0 .4-.3.6-.6.6z"/><path class="st0" d="M32.7 24.8H31c-.3 0-.6-.3-.6-.6s.3-.6.6-.6h1.7c.3 0 .6.3.6.6s-.2.6-.6.6zm1.7 4c-.3 0-.6-.3-.6-.6V26c0-.3.3-.6.6-.6s.6.3.6.6v2.3c0 .2-.3.5-.6.5zm-6.7-4c-.3 0-.6-.3-.6-.6v-1.5c0-.3.3-.6.6-.6s.6.3.6.6v1.5c-.1.4-.3.6-.6.6z"/><path class="st0" d="M31 24.8c-.3 0-.6-.3-.6-.6v-1.5c0-.3.3-.6.6-.6s.6.3.6.6v1.5c0 .4-.2.6-.6.6z"/><path class="st0" d="M29.4 23.7c-2.5 0-4.5-2-4.5-4.5 0-.3.3-.6.6-.6s.6.3.6.6c0 1.9 1.5 3.4 3.4 3.4s3.4-1.5 3.4-3.4c0-.3.3-.6.6-.6s.6.3.6.6c-.2 2.5-2.3 4.5-4.7 4.5zm-18.7 9c-.3 0-.6-.3-.6-.6 0-1.9 1.5-3.4 3.4-3.4.3 0 .6.3.6.6s-.3.6-.6.6c-1.2 0-2.3 1-2.3 2.3.1.3-.2.5-.5.5z"/><path class="st0" d="M15.2 29.9h-1.7c-.3 0-.6-.3-.6-.6s.3-.6.6-.6h1.7c.3 0 .6.3.6.6 0 .4-.2.6-.6.6zM10.7 35c-.3 0-.6-.3-.6-.6v-2.3c0-.3.3-.6.6-.6s.6.3.6.6v2.3c0 .3-.3.6-.6.6zm13.6-2.3c-.3 0-.6-.3-.6-.6 0-1.2-1-2.3-2.3-2.3-.3 0-.6-.3-.6-.6s.3-.6.6-.6c1.9 0 3.4 1.5 3.4 3.4 0 .5-.2.7-.5.7z"/><path class="st0" d="M21.5 29.9h-1.7c-.3 0-.6-.3-.6-.6s.3-.6.6-.6h1.7c.3 0 .6.3.6.6-.1.4-.3.6-.6.6zm2.8 5.1c-.3 0-.6-.3-.6-.6v-2.3c0-.3.3-.6.6-.6s.6.3.6.6v2.3c-.1.3-.3.6-.6.6zm-9.1-5.1c-.3 0-.6-.3-.6-.6v-2.2c0-.3.3-.6.6-.6s.6.3.6.6v2.2c0 .4-.2.6-.6.6z"/><path class="st0" d="M19.8 29.9c-.3 0-.6-.3-.6-.6v-2.2c0-.3.3-.6.6-.6s.6.3.6.6v2.2c-.1.4-.3.6-.6.6z"/><path class="st0" d="M17.5 28.2c-3.1 0-5.6-2.5-5.6-5.6 0-.3.3-.6.6-.6s.6.3.6.6c0 2.5 2 4.5 4.5 4.5s4.5-2 4.5-4.5c0-.3.3-.6.6-.6s.6.3.6.6c-.2 3.1-2.7 5.6-5.8 5.6z"/><path class="st0" d="M12.4 23.2c-.3 0-.6-.3-.6-.6v-3.4c0-.3.3-.6.6-.6s.6.3.6.6v3.4c0 .3-.3.6-.6.6zm10.2-.1c-.3 0-.6-.3-.6-.6v-3.4c0-.3.3-.6.6-.6s.6.3.6.6v3.4c-.1.4-.3.6-.6.6z"/><path class="st0" d="M22.6 19.8c-.3 0-.6-.3-.6-.6 0-.9-.8-1.7-1.7-1.7-.3 0-.6-.3-.6-.6s.3-.6.6-.6c1.6 0 2.8 1.3 2.8 2.8 0 .4-.2.7-.5.7z"/><path class="st0" d="M20.3 17.5c-.3 0-.6-.3-.6-.6v-2.3c0-.3.3-.6.6-.6s.6.3.6.6v2.3c0 .3-.3.6-.6.6z"/><path class="st0" d="M20.3 15.2h-3.4c-.3 0-.6-.3-.6-.6s.3-.6.6-.6h3.4c.3 0 .6.3.6.6 0 .4-.3.6-.6.6z"/><path class="st0" d="M12.4 19.8c-.3 0-.6-.3-.6-.6 0-2.8 2.3-5.1 5.1-5.1.3 0 .6.3.6.6s-.3.6-.6.6c-2.2 0-4 1.8-4 4 .1.2-.2.5-.5.5zm10.2 1.7c-.1 0-.2 0-.3-.1l-1.7-1.1c-.3-.2-.3-.5-.2-.8.2-.3.5-.3.8-.2l1.7 1.1c.3.2.3.5.2.8-.2.2-.3.3-.5.3z"/><path class="st0" d="M17.8 20.9c-2 0-3.8-.6-3.8-.6-.3-.1-.5-.4-.4-.7.1-.3.4-.5.7-.4 0 0 1.6.5 3.5.5 1.8 0 2.8-.5 2.9-.5.3-.1.6 0 .8.3.1.3 0 .6-.3.8-.1 0-1.3.6-3.4.6z"/><path class="st0" d="M12.4 21.5c-.2 0-.4-.1-.5-.2-.2-.3-.1-.6.2-.8l1.7-1.1c.3-.2.6-.1.8.2.2.3.1.6-.2.8l-1.7 1.1c-.1-.1-.2 0-.3 0zm22-4.6c-.3 0-.6-.3-.6-.6 0-2.2-1.8-4-4-4-1 0-1.9.5-2.5 1-.2.2-.6.2-.8-.1-.2-.2-.2-.6.1-.8 1-.8 2.1-1.3 3.2-1.3 2.8 0 5.1 2.3 5.1 5.1.1.5-.2.7-.5.7zm0 5.7c-.3 0-.6-.3-.6-.6 0-2.2-1.8-4-4-4-.3 0-.6-.3-.6-.6s.3-.6.6-.6c2.8 0 5.1 2.3 5.1 5.1.1.4-.2.7-.5.7zm-9-4.5c-.3 0-.6-.3-.6-.6s.3-.6.6-.6c.6 0 1.1-.5 1.1-1.1 0-.3.3-.6.6-.6s.6.3.6.6c0 1.2-1.1 2.3-2.3 2.3z"/><path class="st0" d="M25.4 15.2c-.3 0-.6-.3-.6-.6 0-1.2 1-2.3 2.3-2.3.3 0 .6.3.6.6s-.3.6-.6.6c-.6 0-1.1.5-1.1 1.1 0 .4-.3.6-.6.6zm3.4 2.9c-1.2 0-2.3-1-2.3-2.3 0-.3.3-.6.6-.6s.6.3.6.6c0 .6.5 1.1 1.1 1.1.3 0 .6.3.6.6s-.3.6-.6.6z"/><path class="st0" d="M27.1 16.4c-.3 0-.6-.3-.6-.6V13c0-.3.3-.6.6-.6s.6.3.6.6v2.8c0 .3-.3.6-.6.6zm7.3 6.2c-.3 0-.6-.3-.6-.6v-5.6c0-.3.3-.6.6-.6s.6.3.6.6V22c0 .3-.3.6-.6.6zm-4.5-4.5h-1.1c-.3 0-.6-.3-.6-.6s.3-.6.6-.6h1.1c.3 0 .6.3.6.6s-.3.6-.6.6zm-28.8-.6c-.3 0-.6-.3-.6-.6v-.3c0-.3.3-.6.6-.6s.6.3.6.6v.3c0 .3-.3.6-.6.6zm15.3 13c-.1 0-.2 0-.3-.1l-1.1-.5c-.3-.1-.4-.5-.3-.8.1-.3.5-.4.8-.3l1.1.6c.3.1.4.5.3.8-.1.2-.3.3-.5.3z"/><path class="st0" d="M16.4 30.5c-.2 0-.4-.1-.5-.3-.1-.3 0-.6.3-.8l1.1-.6c.3-.1.6 0 .8.3.1.3 0 .6-.3.8l-1.1.6h-.3zm2.2 0c-.2 0-.4-.1-.5-.3-.1-.3 0-.6.3-.8l1.1-.6c.3-.1.6 0 .8.3.1.3 0 .6-.3.8l-1.1.6h-.3z"/><path class="st0" d="M18.6 30.5c-.1 0-.2 0-.3-.1l-1.1-.6c-.3-.1-.4-.5-.3-.8.1-.3.5-.4.8-.3l1.1.6c.3.1.4.5.3.8-.1.3-.3.4-.5.4zM29.4 26c-.1 0-.2 0-.3-.1l-1.7-1.1c-.3-.2-.3-.5-.2-.8.2-.3.5-.3.8-.2l1.7 1.1c.3.2.3.5.2.8-.2.2-.4.3-.5.3z"/><path class="st0" d="M29.4 26c-.2 0-.4-.1-.5-.3-.2-.3-.1-.6.2-.8l1.7-1.1c.3-.2.6-.1.8.2.2.3.1.6-.2.8l-1.7 1.1c-.1 0-.2.1-.3.1zM5.6 26c-1.3 0-2.3-.7-2.3-1.7 0-.3.3-.6.6-.6s.6.3.6.6c0 .2.4.6 1.1.6s1.1-.3 1.1-.6.3-.6.6-.6.6.3.6.6c0 .9-1 1.7-2.3 1.7zm15-20.9h-6.2c-.3 0-.6-.3-.6-.6V3.4c0-.2.1-.4.4-.5l3.1-1.1h.4l3.1 1.1c.2.1.4.3.4.5v1.1c0 .3-.3.6-.6.6zM15 3.9h5v-.1l-2.5-.9-2.5.9v.1zm5.6 5.7h-6.2c-.3 0-.6-.3-.6-.6V7.3c0-.3.3-.6.6-.6h6.2c.3 0 .6.3.6.6V9c0 .3-.3.6-.6.6zM15 8.5h5v-.6h-5v.6z"/><path class="st0" d="M15 7.9c-.3 0-.6-.3-.6-.6V4.5c0-.3.3-.6.6-.6s.6.3.6.6v2.8c-.1.3-.3.6-.6.6zm3.3 0c-.3 0-.6-.3-.6-.6V4.5c0-.3.3-.6.6-.6s.6.3.6.6v2.8c0 .3-.2.6-.6.6zm-1.6 0c-.3 0-.6-.3-.6-.6V4.5c0-.3.3-.6.6-.6s.6.3.6.6v2.8c-.1.3-.3.6-.6.6zm3.3 0c-.3 0-.6-.3-.6-.6V4.5c0-.3.3-.6.6-.6s.6.3.6.6v2.8c0 .3-.2.6-.6.6zm6.5-6.8h-18c-.3 0-.6-.3-.6-.6s.3-.5.6-.5h18.1c.3 0 .6.3.6.6s-.4.5-.7.5zm0 10.2h-18c-.3 0-.6-.3-.6-.6s.3-.6.6-.6h18.1c.3 0 .6.3.6.6-.1.3-.4.6-.7.6zm0-2.8c-1.6 0-2.8-1.3-2.8-2.8s1.3-2.8 2.8-2.8c.3 0 .6.3.6.6s-.3.5-.6.5c-.9 0-1.7.8-1.7 1.7s.8 1.7 1.7 1.7c.3 0 .6.3.6.6s-.3.5-.6.5z"/><path class="st0" d="M26.5 11.3c-.3 0-.6-.3-.6-.6V7.9c0-.3.3-.6.6-.6s.6.3.6.6v2.8c0 .3-.3.6-.6.6zm0-7.3c-.3 0-.5-.3-.5-.6V.6c0-.3.2-.6.5-.6s.6.3.6.6v2.8c0 .3-.3.6-.6.6zm-18 4.5c-.3 0-.6-.3-.6-.6s.3-.6.6-.6c.9 0 1.7-.8 1.7-1.7S9.4 4 8.5 4c-.3 0-.6-.3-.6-.6s.3-.6.6-.6c1.6 0 2.8 1.3 2.8 2.8S10 8.5 8.5 8.5z"/><path class="st0" d="M8.5 11.3c-.3 0-.6-.3-.6-.6V7.9c0-.3.3-.6.6-.6s.5.3.5.6v2.8c0 .3-.2.6-.5.6zm0-7.3c-.3 0-.6-.3-.6-.6V.6c0-.3.3-.6.6-.6s.5.3.5.6v2.8c0 .3-.2.6-.5.6z"/></svg>